<?xml version="1.0" encoding="utf-8" standalone="no"?>
<!DOCTYPE svg PUBLIC "-//W3C//DTD SVG 1.1//EN"
  "http://www.w3.org/Graphics/SVG/1.1/DTD/svg11.dtd">
<!-- Created with matplotlib (https://matplotlib.org/) -->
<svg height="505.68pt" version="1.1" viewBox="0 0 651.661689 505.68" width="651.661689pt" xmlns="http://www.w3.org/2000/svg" xmlns:xlink="http://www.w3.org/1999/xlink">
 <defs>
  <style type="text/css">
*{stroke-linecap:butt;stroke-linejoin:round;}
  </style>
 </defs>
 <g id="figure_1">
  <g id="patch_1">
   <path d="M 0 505.68 
L 651.661689 505.68 
L 651.661689 0 
L 0 0 
z
" style="fill:#ffffff;"/>
  </g>
  <g id="axes_1">
   <g id="line2d_1">
    <path clip-path="url(#p738526b71e)" d="M 115.881689 48.16 
L 645.641689 48.16 
" style="fill:none;stroke:#000000;stroke-linecap:square;stroke-width:2;"/>
   </g>
   <g id="line2d_2">
    <path clip-path="url(#p738526b71e)" d="M 115.881689 108.36 
L 645.641689 108.36 
" style="fill:none;stroke:#000000;stroke-linecap:square;stroke-width:2;"/>
   </g>
   <g id="line2d_3">
    <path clip-path="url(#p738526b71e)" d="M 115.881689 168.56 
L 645.641689 168.56 
" style="fill:none;stroke:#000000;stroke-linecap:square;stroke-width:2;"/>
   </g>
   <g id="line2d_4">
    <path clip-path="url(#p738526b71e)" d="M 115.881689 228.76 
L 645.641689 228.76 
" style="fill:none;stroke:#000000;stroke-linecap:square;stroke-width:2;"/>
   </g>
   <g id="line2d_5">
    <path clip-path="url(#p738526b71e)" d="M 115.881689 288.96 
L 645.641689 288.96 
" style="fill:none;stroke:#000000;stroke-linecap:square;stroke-width:2;"/>
   </g>
   <g id="line2d_6">
    <path clip-path="url(#p738526b71e)" d="M 115.881689 349.16 
L 645.641689 349.16 
" style="fill:none;stroke:#000000;stroke-linecap:square;stroke-width:2;"/>
   </g>
   <g id="line2d_7">
    <path clip-path="url(#p738526b71e)" d="M 115.881689 409.36 
L 645.641689 409.36 
" style="fill:none;stroke:#000000;stroke-linecap:square;stroke-width:2;"/>
   </g>
   <g id="line2d_8">
    <path clip-path="url(#p738526b71e)" d="M 115.881689 469.56 
L 645.641689 469.56 
" style="fill:none;stroke:#000000;stroke-linecap:square;stroke-width:2;"/>
   </g>
   <g id="line2d_9">
    <path clip-path="url(#p738526b71e)" d="M 164.041689 469.56 
L 164.041689 48.16 
" style="fill:none;stroke:#bb8bff;stroke-linecap:square;stroke-width:2;"/>
   </g>
   <g id="line2d_10">
    <path clip-path="url(#p738526b71e)" d="M 224.241689 409.36 
L 224.241689 48.16 
" style="fill:none;stroke:#bb8bff;stroke-linecap:square;stroke-width:2;"/>
   </g>
   <g id="line2d_11">
    <path clip-path="url(#p738526b71e)" d="M 284.441689 349.16 
L 284.441689 48.16 
" style="fill:none;stroke:#bb8bff;stroke-linecap:square;stroke-width:2;"/>
   </g>
   <g id="line2d_12">
    <path clip-path="url(#p738526b71e)" d="M 344.641689 288.96 
L 344.641689 48.16 
" style="fill:none;stroke:#bb8bff;stroke-linecap:square;stroke-width:2;"/>
   </g>
   <g id="line2d_13">
    <path clip-path="url(#p738526b71e)" d="M 404.841689 228.76 
L 404.841689 48.16 
" style="fill:none;stroke:#bb8bff;stroke-linecap:square;stroke-width:2;"/>
   </g>
   <g id="line2d_14">
    <path clip-path="url(#p738526b71e)" d="M 465.041689 168.56 
L 465.041689 48.16 
" style="fill:none;stroke:#bb8bff;stroke-linecap:square;stroke-width:2;"/>
   </g>
   <g id="line2d_15">
    <path clip-path="url(#p738526b71e)" d="M 525.241689 108.36 
L 525.241689 48.16 
" style="fill:none;stroke:#6fa4ff;stroke-linecap:square;stroke-width:2;"/>
   </g>
   <g id="patch_2">
    <path clip-path="url(#p738526b71e)" d="M 164.041689 54.0295 
C 165.598299 54.0295 167.091363 53.411052 168.192052 52.310363 
C 169.292741 51.209674 169.911189 49.71661 169.911189 48.16 
C 169.911189 46.60339 169.292741 45.110326 168.192052 44.009637 
C 167.091363 42.908948 165.598299 42.2905 164.041689 42.2905 
C 162.485079 42.2905 160.992015 42.908948 159.891326 44.009637 
C 158.790637 45.110326 158.172189 46.60339 158.172189 48.16 
C 158.172189 49.71661 158.790637 51.209674 159.891326 52.310363 
C 160.992015 53.411052 162.485079 54.0295 164.041689 54.0295 
z
" style="fill:#bb8bff;stroke:#bb8bff;stroke-linejoin:miter;stroke-width:1.5;"/>
   </g>
   <g id="patch_3">
    <path clip-path="url(#p738526b71e)" d="M 164.041689 114.2295 
C 165.598299 114.2295 167.091363 113.611052 168.192052 112.510363 
C 169.292741 111.409674 169.911189 109.91661 169.911189 108.36 
C 169.911189 106.80339 169.292741 105.310326 168.192052 104.209637 
C 167.091363 103.108948 165.598299 102.4905 164.041689 102.4905 
C 162.485079 102.4905 160.992015 103.108948 159.891326 104.209637 
C 158.790637 105.310326 158.172189 106.80339 158.172189 108.36 
C 158.172189 109.91661 158.790637 111.409674 159.891326 112.510363 
C 160.992015 113.611052 162.485079 114.2295 164.041689 114.2295 
z
" style="fill:#bb8bff;stroke:#bb8bff;stroke-linejoin:miter;stroke-width:1.5;"/>
   </g>
   <g id="patch_4">
    <path clip-path="url(#p738526b71e)" d="M 164.041689 174.4295 
C 165.598299 174.4295 167.091363 173.811052 168.192052 172.710363 
C 169.292741 171.609674 169.911189 170.11661 169.911189 168.56 
C 169.911189 167.00339 169.292741 165.510326 168.192052 164.409637 
C 167.091363 163.308948 165.598299 162.6905 164.041689 162.6905 
C 162.485079 162.6905 160.992015 163.308948 159.891326 164.409637 
C 158.790637 165.510326 158.172189 167.00339 158.172189 168.56 
C 158.172189 170.11661 158.790637 171.609674 159.891326 172.710363 
C 160.992015 173.811052 162.485079 174.4295 164.041689 174.4295 
z
" style="fill:#bb8bff;stroke:#bb8bff;stroke-linejoin:miter;stroke-width:1.5;"/>
   </g>
   <g id="patch_5">
    <path clip-path="url(#p738526b71e)" d="M 164.041689 234.6295 
C 165.598299 234.6295 167.091363 234.011052 168.192052 232.910363 
C 169.292741 231.809674 169.911189 230.31661 169.911189 228.76 
C 169.911189 227.20339 169.292741 225.710326 168.192052 224.609637 
C 167.091363 223.508948 165.598299 222.8905 164.041689 222.8905 
C 162.485079 222.8905 160.992015 223.508948 159.891326 224.609637 
C 158.790637 225.710326 158.172189 227.20339 158.172189 228.76 
C 158.172189 230.31661 158.790637 231.809674 159.891326 232.910363 
C 160.992015 234.011052 162.485079 234.6295 164.041689 234.6295 
z
" style="fill:#bb8bff;stroke:#bb8bff;stroke-linejoin:miter;stroke-width:1.5;"/>
   </g>
   <g id="patch_6">
    <path clip-path="url(#p738526b71e)" d="M 164.041689 294.8295 
C 165.598299 294.8295 167.091363 294.211052 168.192052 293.110363 
C 169.292741 292.009674 169.911189 290.51661 169.911189 288.96 
C 169.911189 287.40339 169.292741 285.910326 168.192052 284.809637 
C 167.091363 283.708948 165.598299 283.0905 164.041689 283.0905 
C 162.485079 283.0905 160.992015 283.708948 159.891326 284.809637 
C 158.790637 285.910326 158.172189 287.40339 158.172189 288.96 
C 158.172189 290.51661 158.790637 292.009674 159.891326 293.110363 
C 160.992015 294.211052 162.485079 294.8295 164.041689 294.8295 
z
" style="fill:#bb8bff;stroke:#bb8bff;stroke-linejoin:miter;stroke-width:1.5;"/>
   </g>
   <g id="patch_7">
    <path clip-path="url(#p738526b71e)" d="M 164.041689 355.0295 
C 165.598299 355.0295 167.091363 354.411052 168.192052 353.310363 
C 169.292741 352.209674 169.911189 350.71661 169.911189 349.16 
C 169.911189 347.60339 169.292741 346.110326 168.192052 345.009637 
C 167.091363 343.908948 165.598299 343.2905 164.041689 343.2905 
C 162.485079 343.2905 160.992015 343.908948 159.891326 345.009637 
C 158.790637 346.110326 158.172189 347.60339 158.172189 349.16 
C 158.172189 350.71661 158.790637 352.209674 159.891326 353.310363 
C 160.992015 354.411052 162.485079 355.0295 164.041689 355.0295 
z
" style="fill:#bb8bff;stroke:#bb8bff;stroke-linejoin:miter;stroke-width:1.5;"/>
   </g>
   <g id="patch_8">
    <path clip-path="url(#p738526b71e)" d="M 164.041689 415.2295 
C 165.598299 415.2295 167.091363 414.611052 168.192052 413.510363 
C 169.292741 412.409674 169.911189 410.91661 169.911189 409.36 
C 169.911189 407.80339 169.292741 406.310326 168.192052 405.209637 
C 167.091363 404.108948 165.598299 403.4905 164.041689 403.4905 
C 162.485079 403.4905 160.992015 404.108948 159.891326 405.209637 
C 158.790637 406.310326 158.172189 407.80339 158.172189 409.36 
C 158.172189 410.91661 158.790637 412.409674 159.891326 413.510363 
C 160.992015 414.611052 162.485079 415.2295 164.041689 415.2295 
z
" style="fill:#bb8bff;stroke:#bb8bff;stroke-linejoin:miter;stroke-width:1.5;"/>
   </g>
   <g id="patch_9">
    <path clip-path="url(#p738526b71e)" d="M 164.041689 483.2555 
C 167.673778 483.2555 171.157595 481.812456 173.72587 479.244181 
C 176.294145 476.675906 177.737189 473.192089 177.737189 469.56 
C 177.737189 465.927911 176.294145 462.444094 173.72587 459.875819 
C 171.157595 457.307544 167.673778 455.8645 164.041689 455.8645 
C 160.4096 455.8645 156.925783 457.307544 154.357508 459.875819 
C 151.789233 462.444094 150.346189 465.927911 150.346189 469.56 
C 150.346189 473.192089 151.789233 476.675906 154.357508 479.244181 
C 156.925783 481.812456 160.4096 483.2555 164.041689 483.2555 
z
" style="fill:#bb8bff;stroke:#bb8bff;stroke-linejoin:miter;stroke-width:2;"/>
   </g>
   <g id="patch_10">
    <path clip-path="url(#p738526b71e)" d="M 224.241689 54.0295 
C 225.798299 54.0295 227.291363 53.411052 228.392052 52.310363 
C 229.492741 51.209674 230.111189 49.71661 230.111189 48.16 
C 230.111189 46.60339 229.492741 45.110326 228.392052 44.009637 
C 227.291363 42.908948 225.798299 42.2905 224.241689 42.2905 
C 222.685079 42.2905 221.192015 42.908948 220.091326 44.009637 
C 218.990637 45.110326 218.372189 46.60339 218.372189 48.16 
C 218.372189 49.71661 218.990637 51.209674 220.091326 52.310363 
C 221.192015 53.411052 222.685079 54.0295 224.241689 54.0295 
z
" style="fill:#bb8bff;stroke:#bb8bff;stroke-linejoin:miter;stroke-width:1.5;"/>
   </g>
   <g id="patch_11">
    <path clip-path="url(#p738526b71e)" d="M 224.241689 114.2295 
C 225.798299 114.2295 227.291363 113.611052 228.392052 112.510363 
C 229.492741 111.409674 230.111189 109.91661 230.111189 108.36 
C 230.111189 106.80339 229.492741 105.310326 228.392052 104.209637 
C 227.291363 103.108948 225.798299 102.4905 224.241689 102.4905 
C 222.685079 102.4905 221.192015 103.108948 220.091326 104.209637 
C 218.990637 105.310326 218.372189 106.80339 218.372189 108.36 
C 218.372189 109.91661 218.990637 111.409674 220.091326 112.510363 
C 221.192015 113.611052 222.685079 114.2295 224.241689 114.2295 
z
" style="fill:#bb8bff;stroke:#bb8bff;stroke-linejoin:miter;stroke-width:1.5;"/>
   </g>
   <g id="patch_12">
    <path clip-path="url(#p738526b71e)" d="M 224.241689 174.4295 
C 225.798299 174.4295 227.291363 173.811052 228.392052 172.710363 
C 229.492741 171.609674 230.111189 170.11661 230.111189 168.56 
C 230.111189 167.00339 229.492741 165.510326 228.392052 164.409637 
C 227.291363 163.308948 225.798299 162.6905 224.241689 162.6905 
C 222.685079 162.6905 221.192015 163.308948 220.091326 164.409637 
C 218.990637 165.510326 218.372189 167.00339 218.372189 168.56 
C 218.372189 170.11661 218.990637 171.609674 220.091326 172.710363 
C 221.192015 173.811052 222.685079 174.4295 224.241689 174.4295 
z
" style="fill:#bb8bff;stroke:#bb8bff;stroke-linejoin:miter;stroke-width:1.5;"/>
   </g>
   <g id="patch_13">
    <path clip-path="url(#p738526b71e)" d="M 224.241689 234.6295 
C 225.798299 234.6295 227.291363 234.011052 228.392052 232.910363 
C 229.492741 231.809674 230.111189 230.31661 230.111189 228.76 
C 230.111189 227.20339 229.492741 225.710326 228.392052 224.609637 
C 227.291363 223.508948 225.798299 222.8905 224.241689 222.8905 
C 222.685079 222.8905 221.192015 223.508948 220.091326 224.609637 
C 218.990637 225.710326 218.372189 227.20339 218.372189 228.76 
C 218.372189 230.31661 218.990637 231.809674 220.091326 232.910363 
C 221.192015 234.011052 222.685079 234.6295 224.241689 234.6295 
z
" style="fill:#bb8bff;stroke:#bb8bff;stroke-linejoin:miter;stroke-width:1.5;"/>
   </g>
   <g id="patch_14">
    <path clip-path="url(#p738526b71e)" d="M 224.241689 294.8295 
C 225.798299 294.8295 227.291363 294.211052 228.392052 293.110363 
C 229.492741 292.009674 230.111189 290.51661 230.111189 288.96 
C 230.111189 287.40339 229.492741 285.910326 228.392052 284.809637 
C 227.291363 283.708948 225.798299 283.0905 224.241689 283.0905 
C 222.685079 283.0905 221.192015 283.708948 220.091326 284.809637 
C 218.990637 285.910326 218.372189 287.40339 218.372189 288.96 
C 218.372189 290.51661 218.990637 292.009674 220.091326 293.110363 
C 221.192015 294.211052 222.685079 294.8295 224.241689 294.8295 
z
" style="fill:#bb8bff;stroke:#bb8bff;stroke-linejoin:miter;stroke-width:1.5;"/>
   </g>
   <g id="patch_15">
    <path clip-path="url(#p738526b71e)" d="M 224.241689 355.0295 
C 225.798299 355.0295 227.291363 354.411052 228.392052 353.310363 
C 229.492741 352.209674 230.111189 350.71661 230.111189 349.16 
C 230.111189 347.60339 229.492741 346.110326 228.392052 345.009637 
C 227.291363 343.908948 225.798299 343.2905 224.241689 343.2905 
C 222.685079 343.2905 221.192015 343.908948 220.091326 345.009637 
C 218.990637 346.110326 218.372189 347.60339 218.372189 349.16 
C 218.372189 350.71661 218.990637 352.209674 220.091326 353.310363 
C 221.192015 354.411052 222.685079 355.0295 224.241689 355.0295 
z
" style="fill:#bb8bff;stroke:#bb8bff;stroke-linejoin:miter;stroke-width:1.5;"/>
   </g>
   <g id="patch_16">
    <path clip-path="url(#p738526b71e)" d="M 224.241689 423.0555 
C 227.873778 423.0555 231.357595 421.612456 233.92587 419.044181 
C 236.494145 416.475906 237.937189 412.992089 237.937189 409.36 
C 237.937189 405.727911 236.494145 402.244094 233.92587 399.675819 
C 231.357595 397.107544 227.873778 395.6645 224.241689 395.6645 
C 220.6096 395.6645 217.125783 397.107544 214.557508 399.675819 
C 211.989233 402.244094 210.546189 405.727911 210.546189 409.36 
C 210.546189 412.992089 211.989233 416.475906 214.557508 419.044181 
C 217.125783 421.612456 220.6096 423.0555 224.241689 423.0555 
z
" style="fill:#bb8bff;stroke:#bb8bff;stroke-linejoin:miter;stroke-width:2;"/>
   </g>
   <g id="patch_17">
    <path clip-path="url(#p738526b71e)" d="M 284.441689 54.0295 
C 285.998299 54.0295 287.491363 53.411052 288.592052 52.310363 
C 289.692741 51.209674 290.311189 49.71661 290.311189 48.16 
C 290.311189 46.60339 289.692741 45.110326 288.592052 44.009637 
C 287.491363 42.908948 285.998299 42.2905 284.441689 42.2905 
C 282.885079 42.2905 281.392015 42.908948 280.291326 44.009637 
C 279.190637 45.110326 278.572189 46.60339 278.572189 48.16 
C 278.572189 49.71661 279.190637 51.209674 280.291326 52.310363 
C 281.392015 53.411052 282.885079 54.0295 284.441689 54.0295 
z
" style="fill:#bb8bff;stroke:#bb8bff;stroke-linejoin:miter;stroke-width:1.5;"/>
   </g>
   <g id="patch_18">
    <path clip-path="url(#p738526b71e)" d="M 284.441689 114.2295 
C 285.998299 114.2295 287.491363 113.611052 288.592052 112.510363 
C 289.692741 111.409674 290.311189 109.91661 290.311189 108.36 
C 290.311189 106.80339 289.692741 105.310326 288.592052 104.209637 
C 287.491363 103.108948 285.998299 102.4905 284.441689 102.4905 
C 282.885079 102.4905 281.392015 103.108948 280.291326 104.209637 
C 279.190637 105.310326 278.572189 106.80339 278.572189 108.36 
C 278.572189 109.91661 279.190637 111.409674 280.291326 112.510363 
C 281.392015 113.611052 282.885079 114.2295 284.441689 114.2295 
z
" style="fill:#bb8bff;stroke:#bb8bff;stroke-linejoin:miter;stroke-width:1.5;"/>
   </g>
   <g id="patch_19">
    <path clip-path="url(#p738526b71e)" d="M 284.441689 174.4295 
C 285.998299 174.4295 287.491363 173.811052 288.592052 172.710363 
C 289.692741 171.609674 290.311189 170.11661 290.311189 168.56 
C 290.311189 167.00339 289.692741 165.510326 288.592052 164.409637 
C 287.491363 163.308948 285.998299 162.6905 284.441689 162.6905 
C 282.885079 162.6905 281.392015 163.308948 280.291326 164.409637 
C 279.190637 165.510326 278.572189 167.00339 278.572189 168.56 
C 278.572189 170.11661 279.190637 171.609674 280.291326 172.710363 
C 281.392015 173.811052 282.885079 174.4295 284.441689 174.4295 
z
" style="fill:#bb8bff;stroke:#bb8bff;stroke-linejoin:miter;stroke-width:1.5;"/>
   </g>
   <g id="patch_20">
    <path clip-path="url(#p738526b71e)" d="M 284.441689 234.6295 
C 285.998299 234.6295 287.491363 234.011052 288.592052 232.910363 
C 289.692741 231.809674 290.311189 230.31661 290.311189 228.76 
C 290.311189 227.20339 289.692741 225.710326 288.592052 224.609637 
C 287.491363 223.508948 285.998299 222.8905 284.441689 222.8905 
C 282.885079 222.8905 281.392015 223.508948 280.291326 224.609637 
C 279.190637 225.710326 278.572189 227.20339 278.572189 228.76 
C 278.572189 230.31661 279.190637 231.809674 280.291326 232.910363 
C 281.392015 234.011052 282.885079 234.6295 284.441689 234.6295 
z
" style="fill:#bb8bff;stroke:#bb8bff;stroke-linejoin:miter;stroke-width:1.5;"/>
   </g>
   <g id="patch_21">
    <path clip-path="url(#p738526b71e)" d="M 284.441689 294.8295 
C 285.998299 294.8295 287.491363 294.211052 288.592052 293.110363 
C 289.692741 292.009674 290.311189 290.51661 290.311189 288.96 
C 290.311189 287.40339 289.692741 285.910326 288.592052 284.809637 
C 287.491363 283.708948 285.998299 283.0905 284.441689 283.0905 
C 282.885079 283.0905 281.392015 283.708948 280.291326 284.809637 
C 279.190637 285.910326 278.572189 287.40339 278.572189 288.96 
C 278.572189 290.51661 279.190637 292.009674 280.291326 293.110363 
C 281.392015 294.211052 282.885079 294.8295 284.441689 294.8295 
z
" style="fill:#bb8bff;stroke:#bb8bff;stroke-linejoin:miter;stroke-width:1.5;"/>
   </g>
   <g id="patch_22">
    <path clip-path="url(#p738526b71e)" d="M 284.441689 362.8555 
C 288.073778 362.8555 291.557595 361.412456 294.12587 358.844181 
C 296.694145 356.275906 298.137189 352.792089 298.137189 349.16 
C 298.137189 345.527911 296.694145 342.044094 294.12587 339.475819 
C 291.557595 336.907544 288.073778 335.4645 284.441689 335.4645 
C 280.8096 335.4645 277.325783 336.907544 274.757508 339.475819 
C 272.189233 342.044094 270.746189 345.527911 270.746189 349.16 
C 270.746189 352.792089 272.189233 356.275906 274.757508 358.844181 
C 277.325783 361.412456 280.8096 362.8555 284.441689 362.8555 
z
" style="fill:#bb8bff;stroke:#bb8bff;stroke-linejoin:miter;stroke-width:2;"/>
   </g>
   <g id="patch_23">
    <path clip-path="url(#p738526b71e)" d="M 344.641689 54.0295 
C 346.198299 54.0295 347.691363 53.411052 348.792052 52.310363 
C 349.892741 51.209674 350.511189 49.71661 350.511189 48.16 
C 350.511189 46.60339 349.892741 45.110326 348.792052 44.009637 
C 347.691363 42.908948 346.198299 42.2905 344.641689 42.2905 
C 343.085079 42.2905 341.592015 42.908948 340.491326 44.009637 
C 339.390637 45.110326 338.772189 46.60339 338.772189 48.16 
C 338.772189 49.71661 339.390637 51.209674 340.491326 52.310363 
C 341.592015 53.411052 343.085079 54.0295 344.641689 54.0295 
z
" style="fill:#bb8bff;stroke:#bb8bff;stroke-linejoin:miter;stroke-width:1.5;"/>
   </g>
   <g id="patch_24">
    <path clip-path="url(#p738526b71e)" d="M 344.641689 114.2295 
C 346.198299 114.2295 347.691363 113.611052 348.792052 112.510363 
C 349.892741 111.409674 350.511189 109.91661 350.511189 108.36 
C 350.511189 106.80339 349.892741 105.310326 348.792052 104.209637 
C 347.691363 103.108948 346.198299 102.4905 344.641689 102.4905 
C 343.085079 102.4905 341.592015 103.108948 340.491326 104.209637 
C 339.390637 105.310326 338.772189 106.80339 338.772189 108.36 
C 338.772189 109.91661 339.390637 111.409674 340.491326 112.510363 
C 341.592015 113.611052 343.085079 114.2295 344.641689 114.2295 
z
" style="fill:#bb8bff;stroke:#bb8bff;stroke-linejoin:miter;stroke-width:1.5;"/>
   </g>
   <g id="patch_25">
    <path clip-path="url(#p738526b71e)" d="M 344.641689 174.4295 
C 346.198299 174.4295 347.691363 173.811052 348.792052 172.710363 
C 349.892741 171.609674 350.511189 170.11661 350.511189 168.56 
C 350.511189 167.00339 349.892741 165.510326 348.792052 164.409637 
C 347.691363 163.308948 346.198299 162.6905 344.641689 162.6905 
C 343.085079 162.6905 341.592015 163.308948 340.491326 164.409637 
C 339.390637 165.510326 338.772189 167.00339 338.772189 168.56 
C 338.772189 170.11661 339.390637 171.609674 340.491326 172.710363 
C 341.592015 173.811052 343.085079 174.4295 344.641689 174.4295 
z
" style="fill:#bb8bff;stroke:#bb8bff;stroke-linejoin:miter;stroke-width:1.5;"/>
   </g>
   <g id="patch_26">
    <path clip-path="url(#p738526b71e)" d="M 344.641689 234.6295 
C 346.198299 234.6295 347.691363 234.011052 348.792052 232.910363 
C 349.892741 231.809674 350.511189 230.31661 350.511189 228.76 
C 350.511189 227.20339 349.892741 225.710326 348.792052 224.609637 
C 347.691363 223.508948 346.198299 222.8905 344.641689 222.8905 
C 343.085079 222.8905 341.592015 223.508948 340.491326 224.609637 
C 339.390637 225.710326 338.772189 227.20339 338.772189 228.76 
C 338.772189 230.31661 339.390637 231.809674 340.491326 232.910363 
C 341.592015 234.011052 343.085079 234.6295 344.641689 234.6295 
z
" style="fill:#bb8bff;stroke:#bb8bff;stroke-linejoin:miter;stroke-width:1.5;"/>
   </g>
   <g id="patch_27">
    <path clip-path="url(#p738526b71e)" d="M 344.641689 302.6555 
C 348.273778 302.6555 351.757595 301.212456 354.32587 298.644181 
C 356.894145 296.075906 358.337189 292.592089 358.337189 288.96 
C 358.337189 285.327911 356.894145 281.844094 354.32587 279.275819 
C 351.757595 276.707544 348.273778 275.2645 344.641689 275.2645 
C 341.0096 275.2645 337.525783 276.707544 334.957508 279.275819 
C 332.389233 281.844094 330.946189 285.327911 330.946189 288.96 
C 330.946189 292.592089 332.389233 296.075906 334.957508 298.644181 
C 337.525783 301.212456 341.0096 302.6555 344.641689 302.6555 
z
" style="fill:#bb8bff;stroke:#bb8bff;stroke-linejoin:miter;stroke-width:2;"/>
   </g>
   <g id="patch_28">
    <path clip-path="url(#p738526b71e)" d="M 404.841689 54.0295 
C 406.398299 54.0295 407.891363 53.411052 408.992052 52.310363 
C 410.092741 51.209674 410.711189 49.71661 410.711189 48.16 
C 410.711189 46.60339 410.092741 45.110326 408.992052 44.009637 
C 407.891363 42.908948 406.398299 42.2905 404.841689 42.2905 
C 403.285079 42.2905 401.792015 42.908948 400.691326 44.009637 
C 399.590637 45.110326 398.972189 46.60339 398.972189 48.16 
C 398.972189 49.71661 399.590637 51.209674 400.691326 52.310363 
C 401.792015 53.411052 403.285079 54.0295 404.841689 54.0295 
z
" style="fill:#bb8bff;stroke:#bb8bff;stroke-linejoin:miter;stroke-width:1.5;"/>
   </g>
   <g id="patch_29">
    <path clip-path="url(#p738526b71e)" d="M 404.841689 114.2295 
C 406.398299 114.2295 407.891363 113.611052 408.992052 112.510363 
C 410.092741 111.409674 410.711189 109.91661 410.711189 108.36 
C 410.711189 106.80339 410.092741 105.310326 408.992052 104.209637 
C 407.891363 103.108948 406.398299 102.4905 404.841689 102.4905 
C 403.285079 102.4905 401.792015 103.108948 400.691326 104.209637 
C 399.590637 105.310326 398.972189 106.80339 398.972189 108.36 
C 398.972189 109.91661 399.590637 111.409674 400.691326 112.510363 
C 401.792015 113.611052 403.285079 114.2295 404.841689 114.2295 
z
" style="fill:#bb8bff;stroke:#bb8bff;stroke-linejoin:miter;stroke-width:1.5;"/>
   </g>
   <g id="patch_30">
    <path clip-path="url(#p738526b71e)" d="M 404.841689 174.4295 
C 406.398299 174.4295 407.891363 173.811052 408.992052 172.710363 
C 410.092741 171.609674 410.711189 170.11661 410.711189 168.56 
C 410.711189 167.00339 410.092741 165.510326 408.992052 164.409637 
C 407.891363 163.308948 406.398299 162.6905 404.841689 162.6905 
C 403.285079 162.6905 401.792015 163.308948 400.691326 164.409637 
C 399.590637 165.510326 398.972189 167.00339 398.972189 168.56 
C 398.972189 170.11661 399.590637 171.609674 400.691326 172.710363 
C 401.792015 173.811052 403.285079 174.4295 404.841689 174.4295 
z
" style="fill:#bb8bff;stroke:#bb8bff;stroke-linejoin:miter;stroke-width:1.5;"/>
   </g>
   <g id="patch_31">
    <path clip-path="url(#p738526b71e)" d="M 404.841689 242.4555 
C 408.473778 242.4555 411.957595 241.012456 414.52587 238.444181 
C 417.094145 235.875906 418.537189 232.392089 418.537189 228.76 
C 418.537189 225.127911 417.094145 221.644094 414.52587 219.075819 
C 411.957595 216.507544 408.473778 215.0645 404.841689 215.0645 
C 401.2096 215.0645 397.725783 216.507544 395.157508 219.075819 
C 392.589233 221.644094 391.146189 225.127911 391.146189 228.76 
C 391.146189 232.392089 392.589233 235.875906 395.157508 238.444181 
C 397.725783 241.012456 401.2096 242.4555 404.841689 242.4555 
z
" style="fill:#bb8bff;stroke:#bb8bff;stroke-linejoin:miter;stroke-width:2;"/>
   </g>
   <g id="patch_32">
    <path clip-path="url(#p738526b71e)" d="M 465.041689 54.0295 
C 466.598299 54.0295 468.091363 53.411052 469.192052 52.310363 
C 470.292741 51.209674 470.911189 49.71661 470.911189 48.16 
C 470.911189 46.60339 470.292741 45.110326 469.192052 44.009637 
C 468.091363 42.908948 466.598299 42.2905 465.041689 42.2905 
C 463.485079 42.2905 461.992015 42.908948 460.891326 44.009637 
C 459.790637 45.110326 459.172189 46.60339 459.172189 48.16 
C 459.172189 49.71661 459.790637 51.209674 460.891326 52.310363 
C 461.992015 53.411052 463.485079 54.0295 465.041689 54.0295 
z
" style="fill:#bb8bff;stroke:#bb8bff;stroke-linejoin:miter;stroke-width:1.5;"/>
   </g>
   <g id="patch_33">
    <path clip-path="url(#p738526b71e)" d="M 465.041689 114.2295 
C 466.598299 114.2295 468.091363 113.611052 469.192052 112.510363 
C 470.292741 111.409674 470.911189 109.91661 470.911189 108.36 
C 470.911189 106.80339 470.292741 105.310326 469.192052 104.209637 
C 468.091363 103.108948 466.598299 102.4905 465.041689 102.4905 
C 463.485079 102.4905 461.992015 103.108948 460.891326 104.209637 
C 459.790637 105.310326 459.172189 106.80339 459.172189 108.36 
C 459.172189 109.91661 459.790637 111.409674 460.891326 112.510363 
C 461.992015 113.611052 463.485079 114.2295 465.041689 114.2295 
z
" style="fill:#bb8bff;stroke:#bb8bff;stroke-linejoin:miter;stroke-width:1.5;"/>
   </g>
   <g id="patch_34">
    <path clip-path="url(#p738526b71e)" d="M 465.041689 182.2555 
C 468.673778 182.2555 472.157595 180.812456 474.72587 178.244181 
C 477.294145 175.675906 478.737189 172.192089 478.737189 168.56 
C 478.737189 164.927911 477.294145 161.444094 474.72587 158.875819 
C 472.157595 156.307544 468.673778 154.8645 465.041689 154.8645 
C 461.4096 154.8645 457.925783 156.307544 455.357508 158.875819 
C 452.789233 161.444094 451.346189 164.927911 451.346189 168.56 
C 451.346189 172.192089 452.789233 175.675906 455.357508 178.244181 
C 457.925783 180.812456 461.4096 182.2555 465.041689 182.2555 
z
" style="fill:#bb8bff;stroke:#bb8bff;stroke-linejoin:miter;stroke-width:2;"/>
   </g>
   <g id="patch_35">
    <path clip-path="url(#p738526b71e)" d="M 525.241689 54.0295 
C 526.798299 54.0295 528.291363 53.411052 529.392052 52.310363 
C 530.492741 51.209674 531.111189 49.71661 531.111189 48.16 
C 531.111189 46.60339 530.492741 45.110326 529.392052 44.009637 
C 528.291363 42.908948 526.798299 42.2905 525.241689 42.2905 
C 523.685079 42.2905 522.192015 42.908948 521.091326 44.009637 
C 519.990637 45.110326 519.372189 46.60339 519.372189 48.16 
C 519.372189 49.71661 519.990637 51.209674 521.091326 52.310363 
C 522.192015 53.411052 523.685079 54.0295 525.241689 54.0295 
z
" style="fill:#6fa4ff;stroke:#6fa4ff;stroke-linejoin:miter;stroke-width:1.5;"/>
   </g>
   <g id="patch_36">
    <path clip-path="url(#p738526b71e)" d="M 525.241689 122.0555 
C 528.873778 122.0555 532.357595 120.612456 534.92587 118.044181 
C 537.494145 115.475906 538.937189 111.992089 538.937189 108.36 
C 538.937189 104.727911 537.494145 101.244094 534.92587 98.675819 
C 532.357595 96.107544 528.873778 94.6645 525.241689 94.6645 
C 521.6096 94.6645 518.125783 96.107544 515.557508 98.675819 
C 512.989233 101.244094 511.546189 104.727911 511.546189 108.36 
C 511.546189 111.992089 512.989233 115.475906 515.557508 118.044181 
C 518.125783 120.612456 521.6096 122.0555 525.241689 122.0555 
z
" style="fill:#6fa4ff;stroke:#6fa4ff;stroke-linejoin:miter;stroke-width:2;"/>
   </g>
   <g id="patch_37">
    <path clip-path="url(#p738526b71e)" d="M 565.876689 67.725 
L 605.006689 67.725 
L 605.006689 28.595 
L 565.876689 28.595 
z
" style="fill:#05bab6;stroke:#05bab6;stroke-linejoin:miter;stroke-width:1.5;"/>
   </g>
   <g id="line2d_16">
    <path clip-path="url(#p738526b71e)" d="M 164.041689 477.386 
L 164.041689 461.734 
" style="fill:none;stroke:#ffffff;stroke-linecap:square;stroke-width:2;"/>
   </g>
   <g id="line2d_17">
    <path clip-path="url(#p738526b71e)" d="M 156.215689 469.56 
L 171.867689 469.56 
" style="fill:none;stroke:#ffffff;stroke-linecap:square;stroke-width:2;"/>
   </g>
   <g id="line2d_18">
    <path clip-path="url(#p738526b71e)" d="M 224.241689 417.186 
L 224.241689 401.534 
" style="fill:none;stroke:#ffffff;stroke-linecap:square;stroke-width:2;"/>
   </g>
   <g id="line2d_19">
    <path clip-path="url(#p738526b71e)" d="M 216.415689 409.36 
L 232.067689 409.36 
" style="fill:none;stroke:#ffffff;stroke-linecap:square;stroke-width:2;"/>
   </g>
   <g id="line2d_20">
    <path clip-path="url(#p738526b71e)" d="M 284.441689 356.986 
L 284.441689 341.334 
" style="fill:none;stroke:#ffffff;stroke-linecap:square;stroke-width:2;"/>
   </g>
   <g id="line2d_21">
    <path clip-path="url(#p738526b71e)" d="M 276.615689 349.16 
L 292.267689 349.16 
" style="fill:none;stroke:#ffffff;stroke-linecap:square;stroke-width:2;"/>
   </g>
   <g id="line2d_22">
    <path clip-path="url(#p738526b71e)" d="M 344.641689 296.786 
L 344.641689 281.134 
" style="fill:none;stroke:#ffffff;stroke-linecap:square;stroke-width:2;"/>
   </g>
   <g id="line2d_23">
    <path clip-path="url(#p738526b71e)" d="M 336.815689 288.96 
L 352.467689 288.96 
" style="fill:none;stroke:#ffffff;stroke-linecap:square;stroke-width:2;"/>
   </g>
   <g id="line2d_24">
    <path clip-path="url(#p738526b71e)" d="M 404.841689 236.586 
L 404.841689 220.934 
" style="fill:none;stroke:#ffffff;stroke-linecap:square;stroke-width:2;"/>
   </g>
   <g id="line2d_25">
    <path clip-path="url(#p738526b71e)" d="M 397.015689 228.76 
L 412.667689 228.76 
" style="fill:none;stroke:#ffffff;stroke-linecap:square;stroke-width:2;"/>
   </g>
   <g id="line2d_26">
    <path clip-path="url(#p738526b71e)" d="M 465.041689 176.386 
L 465.041689 160.734 
" style="fill:none;stroke:#ffffff;stroke-linecap:square;stroke-width:2;"/>
   </g>
   <g id="line2d_27">
    <path clip-path="url(#p738526b71e)" d="M 457.215689 168.56 
L 472.867689 168.56 
" style="fill:none;stroke:#ffffff;stroke-linecap:square;stroke-width:2;"/>
   </g>
   <g id="line2d_28">
    <path clip-path="url(#p738526b71e)" d="M 525.241689 116.186 
L 525.241689 100.534 
" style="fill:none;stroke:#ffffff;stroke-linecap:square;stroke-width:2;"/>
   </g>
   <g id="line2d_29">
    <path clip-path="url(#p738526b71e)" d="M 517.415689 108.36 
L 533.067689 108.36 
" style="fill:none;stroke:#ffffff;stroke-linecap:square;stroke-width:2;"/>
   </g>
   <g id="text_1">
    <g clip-path="url(#p738526b71e)">
     <!-- X -->
     <defs>
      <path d="M 6.296875 72.90625 
L 16.890625 72.90625 
L 35.015625 45.796875 
L 53.21875 72.90625 
L 63.8125 72.90625 
L 40.375 37.890625 
L 65.375 0 
L 54.78125 0 
L 34.28125 31 
L 13.625 0 
L 2.984375 0 
L 29 38.921875 
z
" id="DejaVuSans-88"/>
     </defs>
     <g transform="translate(580.989189 51.747188)scale(0.13 -0.13)">
      <use xlink:href="#DejaVuSans-88"/>
     </g>
    </g>
   </g>
   <g id="text_2">
    <g clip-path="url(#p738526b71e)">
     <!-- ${p[0]}_{0}$ -->
     <defs>
      <path d="M 49.609375 33.6875 
Q 49.609375 40.875 46.484375 44.671875 
Q 43.359375 48.484375 37.5 48.484375 
Q 33.5 48.484375 29.859375 46.4375 
Q 26.21875 44.390625 23.390625 40.484375 
Q 20.609375 36.625 18.9375 31.15625 
Q 17.28125 25.6875 17.28125 20.3125 
Q 17.28125 13.484375 20.40625 9.796875 
Q 23.53125 6.109375 29.296875 6.109375 
Q 33.546875 6.109375 37.1875 8.109375 
Q 40.828125 10.109375 43.40625 13.921875 
Q 46.1875 17.921875 47.890625 23.34375 
Q 49.609375 28.765625 49.609375 33.6875 
z
M 21.78125 46.390625 
Q 25.390625 51.125 30.296875 53.5625 
Q 35.203125 56 41.21875 56 
Q 49.609375 56 54.25 50.5 
Q 58.890625 45.015625 58.890625 35.109375 
Q 58.890625 27 56 19.65625 
Q 53.125 12.3125 47.703125 6.5 
Q 44.09375 2.640625 39.546875 0.609375 
Q 35.015625 -1.421875 29.984375 -1.421875 
Q 24.171875 -1.421875 20.21875 1 
Q 16.265625 3.421875 14.3125 8.203125 
L 8.6875 -20.796875 
L -0.296875 -20.796875 
L 14.40625 54.6875 
L 23.390625 54.6875 
z
" id="DejaVuSans-Oblique-112"/>
      <path d="M 8.59375 75.984375 
L 29.296875 75.984375 
L 29.296875 69 
L 17.578125 69 
L 17.578125 -6.203125 
L 29.296875 -6.203125 
L 29.296875 -13.1875 
L 8.59375 -13.1875 
z
" id="DejaVuSans-91"/>
      <path d="M 31.78125 66.40625 
Q 24.171875 66.40625 20.328125 58.90625 
Q 16.5 51.421875 16.5 36.375 
Q 16.5 21.390625 20.328125 13.890625 
Q 24.171875 6.390625 31.78125 6.390625 
Q 39.453125 6.390625 43.28125 13.890625 
Q 47.125 21.390625 47.125 36.375 
Q 47.125 51.421875 43.28125 58.90625 
Q 39.453125 66.40625 31.78125 66.40625 
z
M 31.78125 74.21875 
Q 44.046875 74.21875 50.515625 64.515625 
Q 56.984375 54.828125 56.984375 36.375 
Q 56.984375 17.96875 50.515625 8.265625 
Q 44.046875 -1.421875 31.78125 -1.421875 
Q 19.53125 -1.421875 13.0625 8.265625 
Q 6.59375 17.96875 6.59375 36.375 
Q 6.59375 54.828125 13.0625 64.515625 
Q 19.53125 74.21875 31.78125 74.21875 
z
" id="DejaVuSans-48"/>
      <path d="M 30.421875 75.984375 
L 30.421875 -13.1875 
L 9.71875 -13.1875 
L 9.71875 -6.203125 
L 21.390625 -6.203125 
L 21.390625 69 
L 9.71875 69 
L 9.71875 75.984375 
z
" id="DejaVuSans-93"/>
     </defs>
     <g transform="translate(50.526689 52.62875)scale(0.1625 -0.1625)">
      <use transform="translate(0 0.015625)" xlink:href="#DejaVuSans-Oblique-112"/>
      <use transform="translate(63.476562 0.015625)" xlink:href="#DejaVuSans-91"/>
      <use transform="translate(102.490234 0.015625)" xlink:href="#DejaVuSans-48"/>
      <use transform="translate(166.113281 0.015625)" xlink:href="#DejaVuSans-93"/>
      <use transform="translate(206.083984 -16.390625)scale(0.7)" xlink:href="#DejaVuSans-48"/>
     </g>
    </g>
   </g>
   <g id="text_3">
    <g clip-path="url(#p738526b71e)">
     <!-- ${p[0]}_{1}$ -->
     <defs>
      <path d="M 12.40625 8.296875 
L 28.515625 8.296875 
L 28.515625 63.921875 
L 10.984375 60.40625 
L 10.984375 69.390625 
L 28.421875 72.90625 
L 38.28125 72.90625 
L 38.28125 8.296875 
L 54.390625 8.296875 
L 54.390625 0 
L 12.40625 0 
z
" id="DejaVuSans-49"/>
     </defs>
     <g transform="translate(50.526689 112.82875)scale(0.1625 -0.1625)">
      <use transform="translate(0 0.015625)" xlink:href="#DejaVuSans-Oblique-112"/>
      <use transform="translate(63.476562 0.015625)" xlink:href="#DejaVuSans-91"/>
      <use transform="translate(102.490234 0.015625)" xlink:href="#DejaVuSans-48"/>
      <use transform="translate(166.113281 0.015625)" xlink:href="#DejaVuSans-93"/>
      <use transform="translate(206.083984 -16.390625)scale(0.7)" xlink:href="#DejaVuSans-49"/>
     </g>
    </g>
   </g>
   <g id="text_4">
    <g clip-path="url(#p738526b71e)">
     <!-- ${p[0]}_{2}$ -->
     <defs>
      <path d="M 19.1875 8.296875 
L 53.609375 8.296875 
L 53.609375 0 
L 7.328125 0 
L 7.328125 8.296875 
Q 12.9375 14.109375 22.625 23.890625 
Q 32.328125 33.6875 34.8125 36.53125 
Q 39.546875 41.84375 41.421875 45.53125 
Q 43.3125 49.21875 43.3125 52.78125 
Q 43.3125 58.59375 39.234375 62.25 
Q 35.15625 65.921875 28.609375 65.921875 
Q 23.96875 65.921875 18.8125 64.3125 
Q 13.671875 62.703125 7.8125 59.421875 
L 7.8125 69.390625 
Q 13.765625 71.78125 18.9375 73 
Q 24.125 74.21875 28.421875 74.21875 
Q 39.75 74.21875 46.484375 68.546875 
Q 53.21875 62.890625 53.21875 53.421875 
Q 53.21875 48.921875 51.53125 44.890625 
Q 49.859375 40.875 45.40625 35.40625 
Q 44.1875 33.984375 37.640625 27.21875 
Q 31.109375 20.453125 19.1875 8.296875 
z
" id="DejaVuSans-50"/>
     </defs>
     <g transform="translate(50.526689 173.02875)scale(0.1625 -0.1625)">
      <use transform="translate(0 0.015625)" xlink:href="#DejaVuSans-Oblique-112"/>
      <use transform="translate(63.476562 0.015625)" xlink:href="#DejaVuSans-91"/>
      <use transform="translate(102.490234 0.015625)" xlink:href="#DejaVuSans-48"/>
      <use transform="translate(166.113281 0.015625)" xlink:href="#DejaVuSans-93"/>
      <use transform="translate(206.083984 -16.390625)scale(0.7)" xlink:href="#DejaVuSans-50"/>
     </g>
    </g>
   </g>
   <g id="text_5">
    <g clip-path="url(#p738526b71e)">
     <!-- ${p[0]}_{3}$ -->
     <defs>
      <path d="M 40.578125 39.3125 
Q 47.65625 37.796875 51.625 33 
Q 55.609375 28.21875 55.609375 21.1875 
Q 55.609375 10.40625 48.1875 4.484375 
Q 40.765625 -1.421875 27.09375 -1.421875 
Q 22.515625 -1.421875 17.65625 -0.515625 
Q 12.796875 0.390625 7.625 2.203125 
L 7.625 11.71875 
Q 11.71875 9.328125 16.59375 8.109375 
Q 21.484375 6.890625 26.8125 6.890625 
Q 36.078125 6.890625 40.9375 10.546875 
Q 45.796875 14.203125 45.796875 21.1875 
Q 45.796875 27.640625 41.28125 31.265625 
Q 36.765625 34.90625 28.71875 34.90625 
L 20.21875 34.90625 
L 20.21875 43.015625 
L 29.109375 43.015625 
Q 36.375 43.015625 40.234375 45.921875 
Q 44.09375 48.828125 44.09375 54.296875 
Q 44.09375 59.90625 40.109375 62.90625 
Q 36.140625 65.921875 28.71875 65.921875 
Q 24.65625 65.921875 20.015625 65.03125 
Q 15.375 64.15625 9.8125 62.3125 
L 9.8125 71.09375 
Q 15.4375 72.65625 20.34375 73.4375 
Q 25.25 74.21875 29.59375 74.21875 
Q 40.828125 74.21875 47.359375 69.109375 
Q 53.90625 64.015625 53.90625 55.328125 
Q 53.90625 49.265625 50.4375 45.09375 
Q 46.96875 40.921875 40.578125 39.3125 
z
" id="DejaVuSans-51"/>
     </defs>
     <g transform="translate(50.526689 233.22875)scale(0.1625 -0.1625)">
      <use transform="translate(0 0.015625)" xlink:href="#DejaVuSans-Oblique-112"/>
      <use transform="translate(63.476562 0.015625)" xlink:href="#DejaVuSans-91"/>
      <use transform="translate(102.490234 0.015625)" xlink:href="#DejaVuSans-48"/>
      <use transform="translate(166.113281 0.015625)" xlink:href="#DejaVuSans-93"/>
      <use transform="translate(206.083984 -16.390625)scale(0.7)" xlink:href="#DejaVuSans-51"/>
     </g>
    </g>
   </g>
   <g id="text_6">
    <g clip-path="url(#p738526b71e)">
     <!-- ${p[0]}_{4}$ -->
     <defs>
      <path d="M 37.796875 64.3125 
L 12.890625 25.390625 
L 37.796875 25.390625 
z
M 35.203125 72.90625 
L 47.609375 72.90625 
L 47.609375 25.390625 
L 58.015625 25.390625 
L 58.015625 17.1875 
L 47.609375 17.1875 
L 47.609375 0 
L 37.796875 0 
L 37.796875 17.1875 
L 4.890625 17.1875 
L 4.890625 26.703125 
z
" id="DejaVuSans-52"/>
     </defs>
     <g transform="translate(50.526689 293.42875)scale(0.1625 -0.1625)">
      <use transform="translate(0 0.015625)" xlink:href="#DejaVuSans-Oblique-112"/>
      <use transform="translate(63.476562 0.015625)" xlink:href="#DejaVuSans-91"/>
      <use transform="translate(102.490234 0.015625)" xlink:href="#DejaVuSans-48"/>
      <use transform="translate(166.113281 0.015625)" xlink:href="#DejaVuSans-93"/>
      <use transform="translate(206.083984 -16.390625)scale(0.7)" xlink:href="#DejaVuSans-52"/>
     </g>
    </g>
   </g>
   <g id="text_7">
    <g clip-path="url(#p738526b71e)">
     <!-- ${p[0]}_{5}$ -->
     <defs>
      <path d="M 10.796875 72.90625 
L 49.515625 72.90625 
L 49.515625 64.59375 
L 19.828125 64.59375 
L 19.828125 46.734375 
Q 21.96875 47.46875 24.109375 47.828125 
Q 26.265625 48.1875 28.421875 48.1875 
Q 40.625 48.1875 47.75 41.5 
Q 54.890625 34.8125 54.890625 23.390625 
Q 54.890625 11.625 47.5625 5.09375 
Q 40.234375 -1.421875 26.90625 -1.421875 
Q 22.3125 -1.421875 17.546875 -0.640625 
Q 12.796875 0.140625 7.71875 1.703125 
L 7.71875 11.625 
Q 12.109375 9.234375 16.796875 8.0625 
Q 21.484375 6.890625 26.703125 6.890625 
Q 35.15625 6.890625 40.078125 11.328125 
Q 45.015625 15.765625 45.015625 23.390625 
Q 45.015625 31 40.078125 35.4375 
Q 35.15625 39.890625 26.703125 39.890625 
Q 22.75 39.890625 18.8125 39.015625 
Q 14.890625 38.140625 10.796875 36.28125 
z
" id="DejaVuSans-53"/>
     </defs>
     <g transform="translate(50.526689 353.62875)scale(0.1625 -0.1625)">
      <use transform="translate(0 0.015625)" xlink:href="#DejaVuSans-Oblique-112"/>
      <use transform="translate(63.476562 0.015625)" xlink:href="#DejaVuSans-91"/>
      <use transform="translate(102.490234 0.015625)" xlink:href="#DejaVuSans-48"/>
      <use transform="translate(166.113281 0.015625)" xlink:href="#DejaVuSans-93"/>
      <use transform="translate(206.083984 -16.390625)scale(0.7)" xlink:href="#DejaVuSans-53"/>
     </g>
    </g>
   </g>
   <g id="text_8">
    <g clip-path="url(#p738526b71e)">
     <!-- ${p[0]}_{6}$ -->
     <defs>
      <path d="M 33.015625 40.375 
Q 26.375 40.375 22.484375 35.828125 
Q 18.609375 31.296875 18.609375 23.390625 
Q 18.609375 15.53125 22.484375 10.953125 
Q 26.375 6.390625 33.015625 6.390625 
Q 39.65625 6.390625 43.53125 10.953125 
Q 47.40625 15.53125 47.40625 23.390625 
Q 47.40625 31.296875 43.53125 35.828125 
Q 39.65625 40.375 33.015625 40.375 
z
M 52.59375 71.296875 
L 52.59375 62.3125 
Q 48.875 64.0625 45.09375 64.984375 
Q 41.3125 65.921875 37.59375 65.921875 
Q 27.828125 65.921875 22.671875 59.328125 
Q 17.53125 52.734375 16.796875 39.40625 
Q 19.671875 43.65625 24.015625 45.921875 
Q 28.375 48.1875 33.59375 48.1875 
Q 44.578125 48.1875 50.953125 41.515625 
Q 57.328125 34.859375 57.328125 23.390625 
Q 57.328125 12.15625 50.6875 5.359375 
Q 44.046875 -1.421875 33.015625 -1.421875 
Q 20.359375 -1.421875 13.671875 8.265625 
Q 6.984375 17.96875 6.984375 36.375 
Q 6.984375 53.65625 15.1875 63.9375 
Q 23.390625 74.21875 37.203125 74.21875 
Q 40.921875 74.21875 44.703125 73.484375 
Q 48.484375 72.75 52.59375 71.296875 
z
" id="DejaVuSans-54"/>
     </defs>
     <g transform="translate(50.526689 413.82875)scale(0.1625 -0.1625)">
      <use transform="translate(0 0.015625)" xlink:href="#DejaVuSans-Oblique-112"/>
      <use transform="translate(63.476562 0.015625)" xlink:href="#DejaVuSans-91"/>
      <use transform="translate(102.490234 0.015625)" xlink:href="#DejaVuSans-48"/>
      <use transform="translate(166.113281 0.015625)" xlink:href="#DejaVuSans-93"/>
      <use transform="translate(206.083984 -16.390625)scale(0.7)" xlink:href="#DejaVuSans-54"/>
     </g>
    </g>
   </g>
   <g id="text_9">
    <g clip-path="url(#p738526b71e)">
     <!-- ${p[0]}_{7}$ -->
     <defs>
      <path d="M 8.203125 72.90625 
L 55.078125 72.90625 
L 55.078125 68.703125 
L 28.609375 0 
L 18.3125 0 
L 43.21875 64.59375 
L 8.203125 64.59375 
z
" id="DejaVuSans-55"/>
     </defs>
     <g transform="translate(50.526689 474.02875)scale(0.1625 -0.1625)">
      <use transform="translate(0 0.015625)" xlink:href="#DejaVuSans-Oblique-112"/>
      <use transform="translate(63.476562 0.015625)" xlink:href="#DejaVuSans-91"/>
      <use transform="translate(102.490234 0.015625)" xlink:href="#DejaVuSans-48"/>
      <use transform="translate(166.113281 0.015625)" xlink:href="#DejaVuSans-93"/>
      <use transform="translate(206.083984 -16.390625)scale(0.7)" xlink:href="#DejaVuSans-55"/>
     </g>
    </g>
   </g>
  </g>
 </g>
 <defs>
  <clipPath id="p738526b71e">
   <rect height="505.68" width="651.661689" x="0" y="0"/>
  </clipPath>
 </defs>
</svg>
