<?xml version="1.0" encoding="utf-8" standalone="no"?>
<!DOCTYPE svg PUBLIC "-//W3C//DTD SVG 1.1//EN"
  "http://www.w3.org/Graphics/SVG/1.1/DTD/svg11.dtd">
<!-- Created with matplotlib (https://matplotlib.org/) -->
<svg height="565.88pt" version="1.1" viewBox="0 0 832.261689 565.88" width="832.261689pt" xmlns="http://www.w3.org/2000/svg" xmlns:xlink="http://www.w3.org/1999/xlink">
 <defs>
  <style type="text/css">
*{stroke-linecap:butt;stroke-linejoin:round;}
  </style>
 </defs>
 <g id="figure_1">
  <g id="patch_1">
   <path d="M 0 565.88 
L 832.261689 565.88 
L 832.261689 0 
L 0 0 
z
" style="fill:#ffffff;"/>
  </g>
  <g id="axes_1">
   <g id="line2d_1">
    <path clip-path="url(#p92626dc538)" d="M 115.881689 48.16 
L 826.241689 48.16 
" style="fill:none;stroke:#000000;stroke-linecap:square;stroke-width:2;"/>
   </g>
   <g id="line2d_2">
    <path clip-path="url(#p92626dc538)" d="M 115.881689 108.36 
L 826.241689 108.36 
" style="fill:none;stroke:#000000;stroke-linecap:square;stroke-width:2;"/>
   </g>
   <g id="line2d_3">
    <path clip-path="url(#p92626dc538)" d="M 115.881689 168.56 
L 826.241689 168.56 
" style="fill:none;stroke:#000000;stroke-linecap:square;stroke-width:2;"/>
   </g>
   <g id="line2d_4">
    <path clip-path="url(#p92626dc538)" d="M 115.881689 228.76 
L 826.241689 228.76 
" style="fill:none;stroke:#000000;stroke-linecap:square;stroke-width:2;"/>
   </g>
   <g id="line2d_5">
    <path clip-path="url(#p92626dc538)" d="M 115.881689 288.96 
L 826.241689 288.96 
" style="fill:none;stroke:#000000;stroke-linecap:square;stroke-width:2;"/>
   </g>
   <g id="line2d_6">
    <path clip-path="url(#p92626dc538)" d="M 115.881689 349.16 
L 826.241689 349.16 
" style="fill:none;stroke:#000000;stroke-linecap:square;stroke-width:2;"/>
   </g>
   <g id="line2d_7">
    <path clip-path="url(#p92626dc538)" d="M 115.881689 409.36 
L 826.241689 409.36 
" style="fill:none;stroke:#000000;stroke-linecap:square;stroke-width:2;"/>
   </g>
   <g id="line2d_8">
    <path clip-path="url(#p92626dc538)" d="M 115.881689 469.56 
L 826.241689 469.56 
" style="fill:none;stroke:#000000;stroke-linecap:square;stroke-width:2;"/>
   </g>
   <g id="line2d_9">
    <path clip-path="url(#p92626dc538)" d="M 115.881689 529.76 
L 826.241689 529.76 
" style="fill:none;stroke:#000000;stroke-linecap:square;stroke-width:2;"/>
   </g>
   <g id="patch_2">
    <path clip-path="url(#p92626dc538)" d="M 272.702689 78.26 
L 296.180689 78.26 
L 296.180689 18.06 
L 272.702689 18.06 
z
" style="fill:#bdbdbd;opacity:0.6;"/>
   </g>
   <g id="patch_3">
    <path clip-path="url(#p92626dc538)" d="M 272.702689 138.46 
L 296.180689 138.46 
L 296.180689 78.26 
L 272.702689 78.26 
z
" style="fill:#bdbdbd;opacity:0.6;"/>
   </g>
   <g id="patch_4">
    <path clip-path="url(#p92626dc538)" d="M 272.702689 198.66 
L 296.180689 198.66 
L 296.180689 138.46 
L 272.702689 138.46 
z
" style="fill:#bdbdbd;opacity:0.6;"/>
   </g>
   <g id="patch_5">
    <path clip-path="url(#p92626dc538)" d="M 272.702689 258.86 
L 296.180689 258.86 
L 296.180689 198.66 
L 272.702689 198.66 
z
" style="fill:#bdbdbd;opacity:0.6;"/>
   </g>
   <g id="patch_6">
    <path clip-path="url(#p92626dc538)" d="M 272.702689 319.06 
L 296.180689 319.06 
L 296.180689 258.86 
L 272.702689 258.86 
z
" style="fill:#bdbdbd;opacity:0.6;"/>
   </g>
   <g id="patch_7">
    <path clip-path="url(#p92626dc538)" d="M 272.702689 379.26 
L 296.180689 379.26 
L 296.180689 319.06 
L 272.702689 319.06 
z
" style="fill:#bdbdbd;opacity:0.6;"/>
   </g>
   <g id="patch_8">
    <path clip-path="url(#p92626dc538)" d="M 272.702689 439.46 
L 296.180689 439.46 
L 296.180689 379.26 
L 272.702689 379.26 
z
" style="fill:#bdbdbd;opacity:0.6;"/>
   </g>
   <g id="patch_9">
    <path clip-path="url(#p92626dc538)" d="M 272.702689 499.66 
L 296.180689 499.66 
L 296.180689 439.46 
L 272.702689 439.46 
z
" style="fill:#bdbdbd;opacity:0.6;"/>
   </g>
   <g id="patch_10">
    <path clip-path="url(#p92626dc538)" d="M 272.702689 559.86 
L 296.180689 559.86 
L 296.180689 499.66 
L 272.702689 499.66 
z
" style="fill:#bdbdbd;opacity:0.6;"/>
   </g>
   <g id="line2d_10">
    <path clip-path="url(#p92626dc538)" d="M 224.241689 529.76 
L 224.241689 48.16 
" style="fill:none;stroke:#bb8bff;stroke-linecap:square;stroke-width:2;"/>
   </g>
   <g id="line2d_11">
    <path clip-path="url(#p92626dc538)" d="M 344.641689 529.76 
L 344.641689 48.16 
" style="fill:none;stroke:#bb8bff;stroke-linecap:square;stroke-width:2;"/>
   </g>
   <g id="line2d_12">
    <path clip-path="url(#p92626dc538)" d="M 404.841689 529.76 
L 404.841689 48.16 
" style="fill:none;stroke:#bb8bff;stroke-linecap:square;stroke-width:2;"/>
   </g>
   <g id="line2d_13">
    <path clip-path="url(#p92626dc538)" d="M 465.041689 529.76 
L 465.041689 48.16 
" style="fill:none;stroke:#bb8bff;stroke-linecap:square;stroke-width:2;"/>
   </g>
   <g id="line2d_14">
    <path clip-path="url(#p92626dc538)" d="M 525.241689 529.76 
L 525.241689 48.16 
" style="fill:none;stroke:#bb8bff;stroke-linecap:square;stroke-width:2;"/>
   </g>
   <g id="line2d_15">
    <path clip-path="url(#p92626dc538)" d="M 585.441689 529.76 
L 585.441689 48.16 
" style="fill:none;stroke:#bb8bff;stroke-linecap:square;stroke-width:2;"/>
   </g>
   <g id="line2d_16">
    <path clip-path="url(#p92626dc538)" d="M 645.641689 529.76 
L 645.641689 48.16 
" style="fill:none;stroke:#bb8bff;stroke-linecap:square;stroke-width:2;"/>
   </g>
   <g id="line2d_17">
    <path clip-path="url(#p92626dc538)" d="M 705.841689 529.76 
L 705.841689 48.16 
" style="fill:none;stroke:#bb8bff;stroke-linecap:square;stroke-width:2;"/>
   </g>
   <g id="line2d_18">
    <path clip-path="url(#p92626dc538)" d="M 766.041689 529.76 
L 766.041689 48.16 
" style="fill:none;stroke:#6fa4ff;stroke-linecap:square;stroke-width:2;"/>
   </g>
   <g id="patch_11">
    <path clip-path="url(#p92626dc538)" d="M 144.476689 549.325 
L 183.606689 549.325 
L 183.606689 510.195 
L 144.476689 510.195 
z
" style="fill:#05bab6;stroke:#05bab6;stroke-linejoin:miter;stroke-width:1.5;"/>
   </g>
   <g id="patch_12">
    <path clip-path="url(#p92626dc538)" d="M 224.241689 54.0295 
C 225.798299 54.0295 227.291363 53.411052 228.392052 52.310363 
C 229.492741 51.209674 230.111189 49.71661 230.111189 48.16 
C 230.111189 46.60339 229.492741 45.110326 228.392052 44.009637 
C 227.291363 42.908948 225.798299 42.2905 224.241689 42.2905 
C 222.685079 42.2905 221.192015 42.908948 220.091326 44.009637 
C 218.990637 45.110326 218.372189 46.60339 218.372189 48.16 
C 218.372189 49.71661 218.990637 51.209674 220.091326 52.310363 
C 221.192015 53.411052 222.685079 54.0295 224.241689 54.0295 
z
" style="fill:#ffffff;stroke:#bb8bff;stroke-linejoin:miter;stroke-width:1.5;"/>
   </g>
   <g id="patch_13">
    <path clip-path="url(#p92626dc538)" d="M 224.241689 114.2295 
C 225.798299 114.2295 227.291363 113.611052 228.392052 112.510363 
C 229.492741 111.409674 230.111189 109.91661 230.111189 108.36 
C 230.111189 106.80339 229.492741 105.310326 228.392052 104.209637 
C 227.291363 103.108948 225.798299 102.4905 224.241689 102.4905 
C 222.685079 102.4905 221.192015 103.108948 220.091326 104.209637 
C 218.990637 105.310326 218.372189 106.80339 218.372189 108.36 
C 218.372189 109.91661 218.990637 111.409674 220.091326 112.510363 
C 221.192015 113.611052 222.685079 114.2295 224.241689 114.2295 
z
" style="fill:#ffffff;stroke:#bb8bff;stroke-linejoin:miter;stroke-width:1.5;"/>
   </g>
   <g id="patch_14">
    <path clip-path="url(#p92626dc538)" d="M 224.241689 174.4295 
C 225.798299 174.4295 227.291363 173.811052 228.392052 172.710363 
C 229.492741 171.609674 230.111189 170.11661 230.111189 168.56 
C 230.111189 167.00339 229.492741 165.510326 228.392052 164.409637 
C 227.291363 163.308948 225.798299 162.6905 224.241689 162.6905 
C 222.685079 162.6905 221.192015 163.308948 220.091326 164.409637 
C 218.990637 165.510326 218.372189 167.00339 218.372189 168.56 
C 218.372189 170.11661 218.990637 171.609674 220.091326 172.710363 
C 221.192015 173.811052 222.685079 174.4295 224.241689 174.4295 
z
" style="fill:#ffffff;stroke:#bb8bff;stroke-linejoin:miter;stroke-width:1.5;"/>
   </g>
   <g id="patch_15">
    <path clip-path="url(#p92626dc538)" d="M 224.241689 234.6295 
C 225.798299 234.6295 227.291363 234.011052 228.392052 232.910363 
C 229.492741 231.809674 230.111189 230.31661 230.111189 228.76 
C 230.111189 227.20339 229.492741 225.710326 228.392052 224.609637 
C 227.291363 223.508948 225.798299 222.8905 224.241689 222.8905 
C 222.685079 222.8905 221.192015 223.508948 220.091326 224.609637 
C 218.990637 225.710326 218.372189 227.20339 218.372189 228.76 
C 218.372189 230.31661 218.990637 231.809674 220.091326 232.910363 
C 221.192015 234.011052 222.685079 234.6295 224.241689 234.6295 
z
" style="fill:#ffffff;stroke:#bb8bff;stroke-linejoin:miter;stroke-width:1.5;"/>
   </g>
   <g id="patch_16">
    <path clip-path="url(#p92626dc538)" d="M 224.241689 294.8295 
C 225.798299 294.8295 227.291363 294.211052 228.392052 293.110363 
C 229.492741 292.009674 230.111189 290.51661 230.111189 288.96 
C 230.111189 287.40339 229.492741 285.910326 228.392052 284.809637 
C 227.291363 283.708948 225.798299 283.0905 224.241689 283.0905 
C 222.685079 283.0905 221.192015 283.708948 220.091326 284.809637 
C 218.990637 285.910326 218.372189 287.40339 218.372189 288.96 
C 218.372189 290.51661 218.990637 292.009674 220.091326 293.110363 
C 221.192015 294.211052 222.685079 294.8295 224.241689 294.8295 
z
" style="fill:#ffffff;stroke:#bb8bff;stroke-linejoin:miter;stroke-width:1.5;"/>
   </g>
   <g id="patch_17">
    <path clip-path="url(#p92626dc538)" d="M 224.241689 355.0295 
C 225.798299 355.0295 227.291363 354.411052 228.392052 353.310363 
C 229.492741 352.209674 230.111189 350.71661 230.111189 349.16 
C 230.111189 347.60339 229.492741 346.110326 228.392052 345.009637 
C 227.291363 343.908948 225.798299 343.2905 224.241689 343.2905 
C 222.685079 343.2905 221.192015 343.908948 220.091326 345.009637 
C 218.990637 346.110326 218.372189 347.60339 218.372189 349.16 
C 218.372189 350.71661 218.990637 352.209674 220.091326 353.310363 
C 221.192015 354.411052 222.685079 355.0295 224.241689 355.0295 
z
" style="fill:#ffffff;stroke:#bb8bff;stroke-linejoin:miter;stroke-width:1.5;"/>
   </g>
   <g id="patch_18">
    <path clip-path="url(#p92626dc538)" d="M 224.241689 415.2295 
C 225.798299 415.2295 227.291363 414.611052 228.392052 413.510363 
C 229.492741 412.409674 230.111189 410.91661 230.111189 409.36 
C 230.111189 407.80339 229.492741 406.310326 228.392052 405.209637 
C 227.291363 404.108948 225.798299 403.4905 224.241689 403.4905 
C 222.685079 403.4905 221.192015 404.108948 220.091326 405.209637 
C 218.990637 406.310326 218.372189 407.80339 218.372189 409.36 
C 218.372189 410.91661 218.990637 412.409674 220.091326 413.510363 
C 221.192015 414.611052 222.685079 415.2295 224.241689 415.2295 
z
" style="fill:#ffffff;stroke:#bb8bff;stroke-linejoin:miter;stroke-width:1.5;"/>
   </g>
   <g id="patch_19">
    <path clip-path="url(#p92626dc538)" d="M 224.241689 475.4295 
C 225.798299 475.4295 227.291363 474.811052 228.392052 473.710363 
C 229.492741 472.609674 230.111189 471.11661 230.111189 469.56 
C 230.111189 468.00339 229.492741 466.510326 228.392052 465.409637 
C 227.291363 464.308948 225.798299 463.6905 224.241689 463.6905 
C 222.685079 463.6905 221.192015 464.308948 220.091326 465.409637 
C 218.990637 466.510326 218.372189 468.00339 218.372189 469.56 
C 218.372189 471.11661 218.990637 472.609674 220.091326 473.710363 
C 221.192015 474.811052 222.685079 475.4295 224.241689 475.4295 
z
" style="fill:#ffffff;stroke:#bb8bff;stroke-linejoin:miter;stroke-width:1.5;"/>
   </g>
   <g id="patch_20">
    <path clip-path="url(#p92626dc538)" d="M 224.241689 543.4555 
C 227.873778 543.4555 231.357595 542.012456 233.92587 539.444181 
C 236.494145 536.875906 237.937189 533.392089 237.937189 529.76 
C 237.937189 526.127911 236.494145 522.644094 233.92587 520.075819 
C 231.357595 517.507544 227.873778 516.0645 224.241689 516.0645 
C 220.6096 516.0645 217.125783 517.507544 214.557508 520.075819 
C 211.989233 522.644094 210.546189 526.127911 210.546189 529.76 
C 210.546189 533.392089 211.989233 536.875906 214.557508 539.444181 
C 217.125783 542.012456 220.6096 543.4555 224.241689 543.4555 
z
" style="fill:#bb8bff;stroke:#bb8bff;stroke-linejoin:miter;stroke-width:2;"/>
   </g>
   <g id="patch_21">
    <path clip-path="url(#p92626dc538)" d="M 344.641689 54.0295 
C 346.198299 54.0295 347.691363 53.411052 348.792052 52.310363 
C 349.892741 51.209674 350.511189 49.71661 350.511189 48.16 
C 350.511189 46.60339 349.892741 45.110326 348.792052 44.009637 
C 347.691363 42.908948 346.198299 42.2905 344.641689 42.2905 
C 343.085079 42.2905 341.592015 42.908948 340.491326 44.009637 
C 339.390637 45.110326 338.772189 46.60339 338.772189 48.16 
C 338.772189 49.71661 339.390637 51.209674 340.491326 52.310363 
C 341.592015 53.411052 343.085079 54.0295 344.641689 54.0295 
z
" style="fill:#bb8bff;stroke:#bb8bff;stroke-linejoin:miter;stroke-width:1.5;"/>
   </g>
   <g id="patch_22">
    <path clip-path="url(#p92626dc538)" d="M 344.641689 114.2295 
C 346.198299 114.2295 347.691363 113.611052 348.792052 112.510363 
C 349.892741 111.409674 350.511189 109.91661 350.511189 108.36 
C 350.511189 106.80339 349.892741 105.310326 348.792052 104.209637 
C 347.691363 103.108948 346.198299 102.4905 344.641689 102.4905 
C 343.085079 102.4905 341.592015 103.108948 340.491326 104.209637 
C 339.390637 105.310326 338.772189 106.80339 338.772189 108.36 
C 338.772189 109.91661 339.390637 111.409674 340.491326 112.510363 
C 341.592015 113.611052 343.085079 114.2295 344.641689 114.2295 
z
" style="fill:#bb8bff;stroke:#bb8bff;stroke-linejoin:miter;stroke-width:1.5;"/>
   </g>
   <g id="patch_23">
    <path clip-path="url(#p92626dc538)" d="M 344.641689 174.4295 
C 346.198299 174.4295 347.691363 173.811052 348.792052 172.710363 
C 349.892741 171.609674 350.511189 170.11661 350.511189 168.56 
C 350.511189 167.00339 349.892741 165.510326 348.792052 164.409637 
C 347.691363 163.308948 346.198299 162.6905 344.641689 162.6905 
C 343.085079 162.6905 341.592015 163.308948 340.491326 164.409637 
C 339.390637 165.510326 338.772189 167.00339 338.772189 168.56 
C 338.772189 170.11661 339.390637 171.609674 340.491326 172.710363 
C 341.592015 173.811052 343.085079 174.4295 344.641689 174.4295 
z
" style="fill:#bb8bff;stroke:#bb8bff;stroke-linejoin:miter;stroke-width:1.5;"/>
   </g>
   <g id="patch_24">
    <path clip-path="url(#p92626dc538)" d="M 344.641689 234.6295 
C 346.198299 234.6295 347.691363 234.011052 348.792052 232.910363 
C 349.892741 231.809674 350.511189 230.31661 350.511189 228.76 
C 350.511189 227.20339 349.892741 225.710326 348.792052 224.609637 
C 347.691363 223.508948 346.198299 222.8905 344.641689 222.8905 
C 343.085079 222.8905 341.592015 223.508948 340.491326 224.609637 
C 339.390637 225.710326 338.772189 227.20339 338.772189 228.76 
C 338.772189 230.31661 339.390637 231.809674 340.491326 232.910363 
C 341.592015 234.011052 343.085079 234.6295 344.641689 234.6295 
z
" style="fill:#bb8bff;stroke:#bb8bff;stroke-linejoin:miter;stroke-width:1.5;"/>
   </g>
   <g id="patch_25">
    <path clip-path="url(#p92626dc538)" d="M 344.641689 294.8295 
C 346.198299 294.8295 347.691363 294.211052 348.792052 293.110363 
C 349.892741 292.009674 350.511189 290.51661 350.511189 288.96 
C 350.511189 287.40339 349.892741 285.910326 348.792052 284.809637 
C 347.691363 283.708948 346.198299 283.0905 344.641689 283.0905 
C 343.085079 283.0905 341.592015 283.708948 340.491326 284.809637 
C 339.390637 285.910326 338.772189 287.40339 338.772189 288.96 
C 338.772189 290.51661 339.390637 292.009674 340.491326 293.110363 
C 341.592015 294.211052 343.085079 294.8295 344.641689 294.8295 
z
" style="fill:#bb8bff;stroke:#bb8bff;stroke-linejoin:miter;stroke-width:1.5;"/>
   </g>
   <g id="patch_26">
    <path clip-path="url(#p92626dc538)" d="M 344.641689 355.0295 
C 346.198299 355.0295 347.691363 354.411052 348.792052 353.310363 
C 349.892741 352.209674 350.511189 350.71661 350.511189 349.16 
C 350.511189 347.60339 349.892741 346.110326 348.792052 345.009637 
C 347.691363 343.908948 346.198299 343.2905 344.641689 343.2905 
C 343.085079 343.2905 341.592015 343.908948 340.491326 345.009637 
C 339.390637 346.110326 338.772189 347.60339 338.772189 349.16 
C 338.772189 350.71661 339.390637 352.209674 340.491326 353.310363 
C 341.592015 354.411052 343.085079 355.0295 344.641689 355.0295 
z
" style="fill:#bb8bff;stroke:#bb8bff;stroke-linejoin:miter;stroke-width:1.5;"/>
   </g>
   <g id="patch_27">
    <path clip-path="url(#p92626dc538)" d="M 344.641689 415.2295 
C 346.198299 415.2295 347.691363 414.611052 348.792052 413.510363 
C 349.892741 412.409674 350.511189 410.91661 350.511189 409.36 
C 350.511189 407.80339 349.892741 406.310326 348.792052 405.209637 
C 347.691363 404.108948 346.198299 403.4905 344.641689 403.4905 
C 343.085079 403.4905 341.592015 404.108948 340.491326 405.209637 
C 339.390637 406.310326 338.772189 407.80339 338.772189 409.36 
C 338.772189 410.91661 339.390637 412.409674 340.491326 413.510363 
C 341.592015 414.611052 343.085079 415.2295 344.641689 415.2295 
z
" style="fill:#bb8bff;stroke:#bb8bff;stroke-linejoin:miter;stroke-width:1.5;"/>
   </g>
   <g id="patch_28">
    <path clip-path="url(#p92626dc538)" d="M 344.641689 535.6295 
C 346.198299 535.6295 347.691363 535.011052 348.792052 533.910363 
C 349.892741 532.809674 350.511189 531.31661 350.511189 529.76 
C 350.511189 528.20339 349.892741 526.710326 348.792052 525.609637 
C 347.691363 524.508948 346.198299 523.8905 344.641689 523.8905 
C 343.085079 523.8905 341.592015 524.508948 340.491326 525.609637 
C 339.390637 526.710326 338.772189 528.20339 338.772189 529.76 
C 338.772189 531.31661 339.390637 532.809674 340.491326 533.910363 
C 341.592015 535.011052 343.085079 535.6295 344.641689 535.6295 
z
" style="fill:#bb8bff;stroke:#bb8bff;stroke-linejoin:miter;stroke-width:1.5;"/>
   </g>
   <g id="patch_29">
    <path clip-path="url(#p92626dc538)" d="M 344.641689 483.2555 
C 348.273778 483.2555 351.757595 481.812456 354.32587 479.244181 
C 356.894145 476.675906 358.337189 473.192089 358.337189 469.56 
C 358.337189 465.927911 356.894145 462.444094 354.32587 459.875819 
C 351.757595 457.307544 348.273778 455.8645 344.641689 455.8645 
C 341.0096 455.8645 337.525783 457.307544 334.957508 459.875819 
C 332.389233 462.444094 330.946189 465.927911 330.946189 469.56 
C 330.946189 473.192089 332.389233 476.675906 334.957508 479.244181 
C 337.525783 481.812456 341.0096 483.2555 344.641689 483.2555 
z
" style="fill:#bb8bff;stroke:#bb8bff;stroke-linejoin:miter;stroke-width:2;"/>
   </g>
   <g id="patch_30">
    <path clip-path="url(#p92626dc538)" d="M 404.841689 54.0295 
C 406.398299 54.0295 407.891363 53.411052 408.992052 52.310363 
C 410.092741 51.209674 410.711189 49.71661 410.711189 48.16 
C 410.711189 46.60339 410.092741 45.110326 408.992052 44.009637 
C 407.891363 42.908948 406.398299 42.2905 404.841689 42.2905 
C 403.285079 42.2905 401.792015 42.908948 400.691326 44.009637 
C 399.590637 45.110326 398.972189 46.60339 398.972189 48.16 
C 398.972189 49.71661 399.590637 51.209674 400.691326 52.310363 
C 401.792015 53.411052 403.285079 54.0295 404.841689 54.0295 
z
" style="fill:#bb8bff;stroke:#bb8bff;stroke-linejoin:miter;stroke-width:1.5;"/>
   </g>
   <g id="patch_31">
    <path clip-path="url(#p92626dc538)" d="M 404.841689 114.2295 
C 406.398299 114.2295 407.891363 113.611052 408.992052 112.510363 
C 410.092741 111.409674 410.711189 109.91661 410.711189 108.36 
C 410.711189 106.80339 410.092741 105.310326 408.992052 104.209637 
C 407.891363 103.108948 406.398299 102.4905 404.841689 102.4905 
C 403.285079 102.4905 401.792015 103.108948 400.691326 104.209637 
C 399.590637 105.310326 398.972189 106.80339 398.972189 108.36 
C 398.972189 109.91661 399.590637 111.409674 400.691326 112.510363 
C 401.792015 113.611052 403.285079 114.2295 404.841689 114.2295 
z
" style="fill:#bb8bff;stroke:#bb8bff;stroke-linejoin:miter;stroke-width:1.5;"/>
   </g>
   <g id="patch_32">
    <path clip-path="url(#p92626dc538)" d="M 404.841689 174.4295 
C 406.398299 174.4295 407.891363 173.811052 408.992052 172.710363 
C 410.092741 171.609674 410.711189 170.11661 410.711189 168.56 
C 410.711189 167.00339 410.092741 165.510326 408.992052 164.409637 
C 407.891363 163.308948 406.398299 162.6905 404.841689 162.6905 
C 403.285079 162.6905 401.792015 163.308948 400.691326 164.409637 
C 399.590637 165.510326 398.972189 167.00339 398.972189 168.56 
C 398.972189 170.11661 399.590637 171.609674 400.691326 172.710363 
C 401.792015 173.811052 403.285079 174.4295 404.841689 174.4295 
z
" style="fill:#bb8bff;stroke:#bb8bff;stroke-linejoin:miter;stroke-width:1.5;"/>
   </g>
   <g id="patch_33">
    <path clip-path="url(#p92626dc538)" d="M 404.841689 234.6295 
C 406.398299 234.6295 407.891363 234.011052 408.992052 232.910363 
C 410.092741 231.809674 410.711189 230.31661 410.711189 228.76 
C 410.711189 227.20339 410.092741 225.710326 408.992052 224.609637 
C 407.891363 223.508948 406.398299 222.8905 404.841689 222.8905 
C 403.285079 222.8905 401.792015 223.508948 400.691326 224.609637 
C 399.590637 225.710326 398.972189 227.20339 398.972189 228.76 
C 398.972189 230.31661 399.590637 231.809674 400.691326 232.910363 
C 401.792015 234.011052 403.285079 234.6295 404.841689 234.6295 
z
" style="fill:#bb8bff;stroke:#bb8bff;stroke-linejoin:miter;stroke-width:1.5;"/>
   </g>
   <g id="patch_34">
    <path clip-path="url(#p92626dc538)" d="M 404.841689 294.8295 
C 406.398299 294.8295 407.891363 294.211052 408.992052 293.110363 
C 410.092741 292.009674 410.711189 290.51661 410.711189 288.96 
C 410.711189 287.40339 410.092741 285.910326 408.992052 284.809637 
C 407.891363 283.708948 406.398299 283.0905 404.841689 283.0905 
C 403.285079 283.0905 401.792015 283.708948 400.691326 284.809637 
C 399.590637 285.910326 398.972189 287.40339 398.972189 288.96 
C 398.972189 290.51661 399.590637 292.009674 400.691326 293.110363 
C 401.792015 294.211052 403.285079 294.8295 404.841689 294.8295 
z
" style="fill:#bb8bff;stroke:#bb8bff;stroke-linejoin:miter;stroke-width:1.5;"/>
   </g>
   <g id="patch_35">
    <path clip-path="url(#p92626dc538)" d="M 404.841689 355.0295 
C 406.398299 355.0295 407.891363 354.411052 408.992052 353.310363 
C 410.092741 352.209674 410.711189 350.71661 410.711189 349.16 
C 410.711189 347.60339 410.092741 346.110326 408.992052 345.009637 
C 407.891363 343.908948 406.398299 343.2905 404.841689 343.2905 
C 403.285079 343.2905 401.792015 343.908948 400.691326 345.009637 
C 399.590637 346.110326 398.972189 347.60339 398.972189 349.16 
C 398.972189 350.71661 399.590637 352.209674 400.691326 353.310363 
C 401.792015 354.411052 403.285079 355.0295 404.841689 355.0295 
z
" style="fill:#bb8bff;stroke:#bb8bff;stroke-linejoin:miter;stroke-width:1.5;"/>
   </g>
   <g id="patch_36">
    <path clip-path="url(#p92626dc538)" d="M 404.841689 535.6295 
C 406.398299 535.6295 407.891363 535.011052 408.992052 533.910363 
C 410.092741 532.809674 410.711189 531.31661 410.711189 529.76 
C 410.711189 528.20339 410.092741 526.710326 408.992052 525.609637 
C 407.891363 524.508948 406.398299 523.8905 404.841689 523.8905 
C 403.285079 523.8905 401.792015 524.508948 400.691326 525.609637 
C 399.590637 526.710326 398.972189 528.20339 398.972189 529.76 
C 398.972189 531.31661 399.590637 532.809674 400.691326 533.910363 
C 401.792015 535.011052 403.285079 535.6295 404.841689 535.6295 
z
" style="fill:#bb8bff;stroke:#bb8bff;stroke-linejoin:miter;stroke-width:1.5;"/>
   </g>
   <g id="patch_37">
    <path clip-path="url(#p92626dc538)" d="M 404.841689 423.0555 
C 408.473778 423.0555 411.957595 421.612456 414.52587 419.044181 
C 417.094145 416.475906 418.537189 412.992089 418.537189 409.36 
C 418.537189 405.727911 417.094145 402.244094 414.52587 399.675819 
C 411.957595 397.107544 408.473778 395.6645 404.841689 395.6645 
C 401.2096 395.6645 397.725783 397.107544 395.157508 399.675819 
C 392.589233 402.244094 391.146189 405.727911 391.146189 409.36 
C 391.146189 412.992089 392.589233 416.475906 395.157508 419.044181 
C 397.725783 421.612456 401.2096 423.0555 404.841689 423.0555 
z
" style="fill:#bb8bff;stroke:#bb8bff;stroke-linejoin:miter;stroke-width:2;"/>
   </g>
   <g id="patch_38">
    <path clip-path="url(#p92626dc538)" d="M 465.041689 54.0295 
C 466.598299 54.0295 468.091363 53.411052 469.192052 52.310363 
C 470.292741 51.209674 470.911189 49.71661 470.911189 48.16 
C 470.911189 46.60339 470.292741 45.110326 469.192052 44.009637 
C 468.091363 42.908948 466.598299 42.2905 465.041689 42.2905 
C 463.485079 42.2905 461.992015 42.908948 460.891326 44.009637 
C 459.790637 45.110326 459.172189 46.60339 459.172189 48.16 
C 459.172189 49.71661 459.790637 51.209674 460.891326 52.310363 
C 461.992015 53.411052 463.485079 54.0295 465.041689 54.0295 
z
" style="fill:#bb8bff;stroke:#bb8bff;stroke-linejoin:miter;stroke-width:1.5;"/>
   </g>
   <g id="patch_39">
    <path clip-path="url(#p92626dc538)" d="M 465.041689 114.2295 
C 466.598299 114.2295 468.091363 113.611052 469.192052 112.510363 
C 470.292741 111.409674 470.911189 109.91661 470.911189 108.36 
C 470.911189 106.80339 470.292741 105.310326 469.192052 104.209637 
C 468.091363 103.108948 466.598299 102.4905 465.041689 102.4905 
C 463.485079 102.4905 461.992015 103.108948 460.891326 104.209637 
C 459.790637 105.310326 459.172189 106.80339 459.172189 108.36 
C 459.172189 109.91661 459.790637 111.409674 460.891326 112.510363 
C 461.992015 113.611052 463.485079 114.2295 465.041689 114.2295 
z
" style="fill:#bb8bff;stroke:#bb8bff;stroke-linejoin:miter;stroke-width:1.5;"/>
   </g>
   <g id="patch_40">
    <path clip-path="url(#p92626dc538)" d="M 465.041689 174.4295 
C 466.598299 174.4295 468.091363 173.811052 469.192052 172.710363 
C 470.292741 171.609674 470.911189 170.11661 470.911189 168.56 
C 470.911189 167.00339 470.292741 165.510326 469.192052 164.409637 
C 468.091363 163.308948 466.598299 162.6905 465.041689 162.6905 
C 463.485079 162.6905 461.992015 163.308948 460.891326 164.409637 
C 459.790637 165.510326 459.172189 167.00339 459.172189 168.56 
C 459.172189 170.11661 459.790637 171.609674 460.891326 172.710363 
C 461.992015 173.811052 463.485079 174.4295 465.041689 174.4295 
z
" style="fill:#bb8bff;stroke:#bb8bff;stroke-linejoin:miter;stroke-width:1.5;"/>
   </g>
   <g id="patch_41">
    <path clip-path="url(#p92626dc538)" d="M 465.041689 234.6295 
C 466.598299 234.6295 468.091363 234.011052 469.192052 232.910363 
C 470.292741 231.809674 470.911189 230.31661 470.911189 228.76 
C 470.911189 227.20339 470.292741 225.710326 469.192052 224.609637 
C 468.091363 223.508948 466.598299 222.8905 465.041689 222.8905 
C 463.485079 222.8905 461.992015 223.508948 460.891326 224.609637 
C 459.790637 225.710326 459.172189 227.20339 459.172189 228.76 
C 459.172189 230.31661 459.790637 231.809674 460.891326 232.910363 
C 461.992015 234.011052 463.485079 234.6295 465.041689 234.6295 
z
" style="fill:#bb8bff;stroke:#bb8bff;stroke-linejoin:miter;stroke-width:1.5;"/>
   </g>
   <g id="patch_42">
    <path clip-path="url(#p92626dc538)" d="M 465.041689 294.8295 
C 466.598299 294.8295 468.091363 294.211052 469.192052 293.110363 
C 470.292741 292.009674 470.911189 290.51661 470.911189 288.96 
C 470.911189 287.40339 470.292741 285.910326 469.192052 284.809637 
C 468.091363 283.708948 466.598299 283.0905 465.041689 283.0905 
C 463.485079 283.0905 461.992015 283.708948 460.891326 284.809637 
C 459.790637 285.910326 459.172189 287.40339 459.172189 288.96 
C 459.172189 290.51661 459.790637 292.009674 460.891326 293.110363 
C 461.992015 294.211052 463.485079 294.8295 465.041689 294.8295 
z
" style="fill:#bb8bff;stroke:#bb8bff;stroke-linejoin:miter;stroke-width:1.5;"/>
   </g>
   <g id="patch_43">
    <path clip-path="url(#p92626dc538)" d="M 465.041689 535.6295 
C 466.598299 535.6295 468.091363 535.011052 469.192052 533.910363 
C 470.292741 532.809674 470.911189 531.31661 470.911189 529.76 
C 470.911189 528.20339 470.292741 526.710326 469.192052 525.609637 
C 468.091363 524.508948 466.598299 523.8905 465.041689 523.8905 
C 463.485079 523.8905 461.992015 524.508948 460.891326 525.609637 
C 459.790637 526.710326 459.172189 528.20339 459.172189 529.76 
C 459.172189 531.31661 459.790637 532.809674 460.891326 533.910363 
C 461.992015 535.011052 463.485079 535.6295 465.041689 535.6295 
z
" style="fill:#bb8bff;stroke:#bb8bff;stroke-linejoin:miter;stroke-width:1.5;"/>
   </g>
   <g id="patch_44">
    <path clip-path="url(#p92626dc538)" d="M 465.041689 362.8555 
C 468.673778 362.8555 472.157595 361.412456 474.72587 358.844181 
C 477.294145 356.275906 478.737189 352.792089 478.737189 349.16 
C 478.737189 345.527911 477.294145 342.044094 474.72587 339.475819 
C 472.157595 336.907544 468.673778 335.4645 465.041689 335.4645 
C 461.4096 335.4645 457.925783 336.907544 455.357508 339.475819 
C 452.789233 342.044094 451.346189 345.527911 451.346189 349.16 
C 451.346189 352.792089 452.789233 356.275906 455.357508 358.844181 
C 457.925783 361.412456 461.4096 362.8555 465.041689 362.8555 
z
" style="fill:#bb8bff;stroke:#bb8bff;stroke-linejoin:miter;stroke-width:2;"/>
   </g>
   <g id="patch_45">
    <path clip-path="url(#p92626dc538)" d="M 525.241689 54.0295 
C 526.798299 54.0295 528.291363 53.411052 529.392052 52.310363 
C 530.492741 51.209674 531.111189 49.71661 531.111189 48.16 
C 531.111189 46.60339 530.492741 45.110326 529.392052 44.009637 
C 528.291363 42.908948 526.798299 42.2905 525.241689 42.2905 
C 523.685079 42.2905 522.192015 42.908948 521.091326 44.009637 
C 519.990637 45.110326 519.372189 46.60339 519.372189 48.16 
C 519.372189 49.71661 519.990637 51.209674 521.091326 52.310363 
C 522.192015 53.411052 523.685079 54.0295 525.241689 54.0295 
z
" style="fill:#bb8bff;stroke:#bb8bff;stroke-linejoin:miter;stroke-width:1.5;"/>
   </g>
   <g id="patch_46">
    <path clip-path="url(#p92626dc538)" d="M 525.241689 114.2295 
C 526.798299 114.2295 528.291363 113.611052 529.392052 112.510363 
C 530.492741 111.409674 531.111189 109.91661 531.111189 108.36 
C 531.111189 106.80339 530.492741 105.310326 529.392052 104.209637 
C 528.291363 103.108948 526.798299 102.4905 525.241689 102.4905 
C 523.685079 102.4905 522.192015 103.108948 521.091326 104.209637 
C 519.990637 105.310326 519.372189 106.80339 519.372189 108.36 
C 519.372189 109.91661 519.990637 111.409674 521.091326 112.510363 
C 522.192015 113.611052 523.685079 114.2295 525.241689 114.2295 
z
" style="fill:#bb8bff;stroke:#bb8bff;stroke-linejoin:miter;stroke-width:1.5;"/>
   </g>
   <g id="patch_47">
    <path clip-path="url(#p92626dc538)" d="M 525.241689 174.4295 
C 526.798299 174.4295 528.291363 173.811052 529.392052 172.710363 
C 530.492741 171.609674 531.111189 170.11661 531.111189 168.56 
C 531.111189 167.00339 530.492741 165.510326 529.392052 164.409637 
C 528.291363 163.308948 526.798299 162.6905 525.241689 162.6905 
C 523.685079 162.6905 522.192015 163.308948 521.091326 164.409637 
C 519.990637 165.510326 519.372189 167.00339 519.372189 168.56 
C 519.372189 170.11661 519.990637 171.609674 521.091326 172.710363 
C 522.192015 173.811052 523.685079 174.4295 525.241689 174.4295 
z
" style="fill:#bb8bff;stroke:#bb8bff;stroke-linejoin:miter;stroke-width:1.5;"/>
   </g>
   <g id="patch_48">
    <path clip-path="url(#p92626dc538)" d="M 525.241689 234.6295 
C 526.798299 234.6295 528.291363 234.011052 529.392052 232.910363 
C 530.492741 231.809674 531.111189 230.31661 531.111189 228.76 
C 531.111189 227.20339 530.492741 225.710326 529.392052 224.609637 
C 528.291363 223.508948 526.798299 222.8905 525.241689 222.8905 
C 523.685079 222.8905 522.192015 223.508948 521.091326 224.609637 
C 519.990637 225.710326 519.372189 227.20339 519.372189 228.76 
C 519.372189 230.31661 519.990637 231.809674 521.091326 232.910363 
C 522.192015 234.011052 523.685079 234.6295 525.241689 234.6295 
z
" style="fill:#bb8bff;stroke:#bb8bff;stroke-linejoin:miter;stroke-width:1.5;"/>
   </g>
   <g id="patch_49">
    <path clip-path="url(#p92626dc538)" d="M 525.241689 535.6295 
C 526.798299 535.6295 528.291363 535.011052 529.392052 533.910363 
C 530.492741 532.809674 531.111189 531.31661 531.111189 529.76 
C 531.111189 528.20339 530.492741 526.710326 529.392052 525.609637 
C 528.291363 524.508948 526.798299 523.8905 525.241689 523.8905 
C 523.685079 523.8905 522.192015 524.508948 521.091326 525.609637 
C 519.990637 526.710326 519.372189 528.20339 519.372189 529.76 
C 519.372189 531.31661 519.990637 532.809674 521.091326 533.910363 
C 522.192015 535.011052 523.685079 535.6295 525.241689 535.6295 
z
" style="fill:#bb8bff;stroke:#bb8bff;stroke-linejoin:miter;stroke-width:1.5;"/>
   </g>
   <g id="patch_50">
    <path clip-path="url(#p92626dc538)" d="M 525.241689 302.6555 
C 528.873778 302.6555 532.357595 301.212456 534.92587 298.644181 
C 537.494145 296.075906 538.937189 292.592089 538.937189 288.96 
C 538.937189 285.327911 537.494145 281.844094 534.92587 279.275819 
C 532.357595 276.707544 528.873778 275.2645 525.241689 275.2645 
C 521.6096 275.2645 518.125783 276.707544 515.557508 279.275819 
C 512.989233 281.844094 511.546189 285.327911 511.546189 288.96 
C 511.546189 292.592089 512.989233 296.075906 515.557508 298.644181 
C 518.125783 301.212456 521.6096 302.6555 525.241689 302.6555 
z
" style="fill:#bb8bff;stroke:#bb8bff;stroke-linejoin:miter;stroke-width:2;"/>
   </g>
   <g id="patch_51">
    <path clip-path="url(#p92626dc538)" d="M 585.441689 54.0295 
C 586.998299 54.0295 588.491363 53.411052 589.592052 52.310363 
C 590.692741 51.209674 591.311189 49.71661 591.311189 48.16 
C 591.311189 46.60339 590.692741 45.110326 589.592052 44.009637 
C 588.491363 42.908948 586.998299 42.2905 585.441689 42.2905 
C 583.885079 42.2905 582.392015 42.908948 581.291326 44.009637 
C 580.190637 45.110326 579.572189 46.60339 579.572189 48.16 
C 579.572189 49.71661 580.190637 51.209674 581.291326 52.310363 
C 582.392015 53.411052 583.885079 54.0295 585.441689 54.0295 
z
" style="fill:#bb8bff;stroke:#bb8bff;stroke-linejoin:miter;stroke-width:1.5;"/>
   </g>
   <g id="patch_52">
    <path clip-path="url(#p92626dc538)" d="M 585.441689 114.2295 
C 586.998299 114.2295 588.491363 113.611052 589.592052 112.510363 
C 590.692741 111.409674 591.311189 109.91661 591.311189 108.36 
C 591.311189 106.80339 590.692741 105.310326 589.592052 104.209637 
C 588.491363 103.108948 586.998299 102.4905 585.441689 102.4905 
C 583.885079 102.4905 582.392015 103.108948 581.291326 104.209637 
C 580.190637 105.310326 579.572189 106.80339 579.572189 108.36 
C 579.572189 109.91661 580.190637 111.409674 581.291326 112.510363 
C 582.392015 113.611052 583.885079 114.2295 585.441689 114.2295 
z
" style="fill:#bb8bff;stroke:#bb8bff;stroke-linejoin:miter;stroke-width:1.5;"/>
   </g>
   <g id="patch_53">
    <path clip-path="url(#p92626dc538)" d="M 585.441689 174.4295 
C 586.998299 174.4295 588.491363 173.811052 589.592052 172.710363 
C 590.692741 171.609674 591.311189 170.11661 591.311189 168.56 
C 591.311189 167.00339 590.692741 165.510326 589.592052 164.409637 
C 588.491363 163.308948 586.998299 162.6905 585.441689 162.6905 
C 583.885079 162.6905 582.392015 163.308948 581.291326 164.409637 
C 580.190637 165.510326 579.572189 167.00339 579.572189 168.56 
C 579.572189 170.11661 580.190637 171.609674 581.291326 172.710363 
C 582.392015 173.811052 583.885079 174.4295 585.441689 174.4295 
z
" style="fill:#bb8bff;stroke:#bb8bff;stroke-linejoin:miter;stroke-width:1.5;"/>
   </g>
   <g id="patch_54">
    <path clip-path="url(#p92626dc538)" d="M 585.441689 535.6295 
C 586.998299 535.6295 588.491363 535.011052 589.592052 533.910363 
C 590.692741 532.809674 591.311189 531.31661 591.311189 529.76 
C 591.311189 528.20339 590.692741 526.710326 589.592052 525.609637 
C 588.491363 524.508948 586.998299 523.8905 585.441689 523.8905 
C 583.885079 523.8905 582.392015 524.508948 581.291326 525.609637 
C 580.190637 526.710326 579.572189 528.20339 579.572189 529.76 
C 579.572189 531.31661 580.190637 532.809674 581.291326 533.910363 
C 582.392015 535.011052 583.885079 535.6295 585.441689 535.6295 
z
" style="fill:#bb8bff;stroke:#bb8bff;stroke-linejoin:miter;stroke-width:1.5;"/>
   </g>
   <g id="patch_55">
    <path clip-path="url(#p92626dc538)" d="M 585.441689 242.4555 
C 589.073778 242.4555 592.557595 241.012456 595.12587 238.444181 
C 597.694145 235.875906 599.137189 232.392089 599.137189 228.76 
C 599.137189 225.127911 597.694145 221.644094 595.12587 219.075819 
C 592.557595 216.507544 589.073778 215.0645 585.441689 215.0645 
C 581.8096 215.0645 578.325783 216.507544 575.757508 219.075819 
C 573.189233 221.644094 571.746189 225.127911 571.746189 228.76 
C 571.746189 232.392089 573.189233 235.875906 575.757508 238.444181 
C 578.325783 241.012456 581.8096 242.4555 585.441689 242.4555 
z
" style="fill:#bb8bff;stroke:#bb8bff;stroke-linejoin:miter;stroke-width:2;"/>
   </g>
   <g id="patch_56">
    <path clip-path="url(#p92626dc538)" d="M 645.641689 54.0295 
C 647.198299 54.0295 648.691363 53.411052 649.792052 52.310363 
C 650.892741 51.209674 651.511189 49.71661 651.511189 48.16 
C 651.511189 46.60339 650.892741 45.110326 649.792052 44.009637 
C 648.691363 42.908948 647.198299 42.2905 645.641689 42.2905 
C 644.085079 42.2905 642.592015 42.908948 641.491326 44.009637 
C 640.390637 45.110326 639.772189 46.60339 639.772189 48.16 
C 639.772189 49.71661 640.390637 51.209674 641.491326 52.310363 
C 642.592015 53.411052 644.085079 54.0295 645.641689 54.0295 
z
" style="fill:#bb8bff;stroke:#bb8bff;stroke-linejoin:miter;stroke-width:1.5;"/>
   </g>
   <g id="patch_57">
    <path clip-path="url(#p92626dc538)" d="M 645.641689 114.2295 
C 647.198299 114.2295 648.691363 113.611052 649.792052 112.510363 
C 650.892741 111.409674 651.511189 109.91661 651.511189 108.36 
C 651.511189 106.80339 650.892741 105.310326 649.792052 104.209637 
C 648.691363 103.108948 647.198299 102.4905 645.641689 102.4905 
C 644.085079 102.4905 642.592015 103.108948 641.491326 104.209637 
C 640.390637 105.310326 639.772189 106.80339 639.772189 108.36 
C 639.772189 109.91661 640.390637 111.409674 641.491326 112.510363 
C 642.592015 113.611052 644.085079 114.2295 645.641689 114.2295 
z
" style="fill:#bb8bff;stroke:#bb8bff;stroke-linejoin:miter;stroke-width:1.5;"/>
   </g>
   <g id="patch_58">
    <path clip-path="url(#p92626dc538)" d="M 645.641689 535.6295 
C 647.198299 535.6295 648.691363 535.011052 649.792052 533.910363 
C 650.892741 532.809674 651.511189 531.31661 651.511189 529.76 
C 651.511189 528.20339 650.892741 526.710326 649.792052 525.609637 
C 648.691363 524.508948 647.198299 523.8905 645.641689 523.8905 
C 644.085079 523.8905 642.592015 524.508948 641.491326 525.609637 
C 640.390637 526.710326 639.772189 528.20339 639.772189 529.76 
C 639.772189 531.31661 640.390637 532.809674 641.491326 533.910363 
C 642.592015 535.011052 644.085079 535.6295 645.641689 535.6295 
z
" style="fill:#bb8bff;stroke:#bb8bff;stroke-linejoin:miter;stroke-width:1.5;"/>
   </g>
   <g id="patch_59">
    <path clip-path="url(#p92626dc538)" d="M 645.641689 182.2555 
C 649.273778 182.2555 652.757595 180.812456 655.32587 178.244181 
C 657.894145 175.675906 659.337189 172.192089 659.337189 168.56 
C 659.337189 164.927911 657.894145 161.444094 655.32587 158.875819 
C 652.757595 156.307544 649.273778 154.8645 645.641689 154.8645 
C 642.0096 154.8645 638.525783 156.307544 635.957508 158.875819 
C 633.389233 161.444094 631.946189 164.927911 631.946189 168.56 
C 631.946189 172.192089 633.389233 175.675906 635.957508 178.244181 
C 638.525783 180.812456 642.0096 182.2555 645.641689 182.2555 
z
" style="fill:#bb8bff;stroke:#bb8bff;stroke-linejoin:miter;stroke-width:2;"/>
   </g>
   <g id="patch_60">
    <path clip-path="url(#p92626dc538)" d="M 705.841689 54.0295 
C 707.398299 54.0295 708.891363 53.411052 709.992052 52.310363 
C 711.092741 51.209674 711.711189 49.71661 711.711189 48.16 
C 711.711189 46.60339 711.092741 45.110326 709.992052 44.009637 
C 708.891363 42.908948 707.398299 42.2905 705.841689 42.2905 
C 704.285079 42.2905 702.792015 42.908948 701.691326 44.009637 
C 700.590637 45.110326 699.972189 46.60339 699.972189 48.16 
C 699.972189 49.71661 700.590637 51.209674 701.691326 52.310363 
C 702.792015 53.411052 704.285079 54.0295 705.841689 54.0295 
z
" style="fill:#bb8bff;stroke:#bb8bff;stroke-linejoin:miter;stroke-width:1.5;"/>
   </g>
   <g id="patch_61">
    <path clip-path="url(#p92626dc538)" d="M 705.841689 535.6295 
C 707.398299 535.6295 708.891363 535.011052 709.992052 533.910363 
C 711.092741 532.809674 711.711189 531.31661 711.711189 529.76 
C 711.711189 528.20339 711.092741 526.710326 709.992052 525.609637 
C 708.891363 524.508948 707.398299 523.8905 705.841689 523.8905 
C 704.285079 523.8905 702.792015 524.508948 701.691326 525.609637 
C 700.590637 526.710326 699.972189 528.20339 699.972189 529.76 
C 699.972189 531.31661 700.590637 532.809674 701.691326 533.910363 
C 702.792015 535.011052 704.285079 535.6295 705.841689 535.6295 
z
" style="fill:#bb8bff;stroke:#bb8bff;stroke-linejoin:miter;stroke-width:1.5;"/>
   </g>
   <g id="patch_62">
    <path clip-path="url(#p92626dc538)" d="M 705.841689 122.0555 
C 709.473778 122.0555 712.957595 120.612456 715.52587 118.044181 
C 718.094145 115.475906 719.537189 111.992089 719.537189 108.36 
C 719.537189 104.727911 718.094145 101.244094 715.52587 98.675819 
C 712.957595 96.107544 709.473778 94.6645 705.841689 94.6645 
C 702.2096 94.6645 698.725783 96.107544 696.157508 98.675819 
C 693.589233 101.244094 692.146189 104.727911 692.146189 108.36 
C 692.146189 111.992089 693.589233 115.475906 696.157508 118.044181 
C 698.725783 120.612456 702.2096 122.0555 705.841689 122.0555 
z
" style="fill:#bb8bff;stroke:#bb8bff;stroke-linejoin:miter;stroke-width:2;"/>
   </g>
   <g id="patch_63">
    <path clip-path="url(#p92626dc538)" d="M 766.041689 535.6295 
C 767.598299 535.6295 769.091363 535.011052 770.192052 533.910363 
C 771.292741 532.809674 771.911189 531.31661 771.911189 529.76 
C 771.911189 528.20339 771.292741 526.710326 770.192052 525.609637 
C 769.091363 524.508948 767.598299 523.8905 766.041689 523.8905 
C 764.485079 523.8905 762.992015 524.508948 761.891326 525.609637 
C 760.790637 526.710326 760.172189 528.20339 760.172189 529.76 
C 760.172189 531.31661 760.790637 532.809674 761.891326 533.910363 
C 762.992015 535.011052 764.485079 535.6295 766.041689 535.6295 
z
" style="fill:#6fa4ff;stroke:#6fa4ff;stroke-linejoin:miter;stroke-width:1.5;"/>
   </g>
   <g id="patch_64">
    <path clip-path="url(#p92626dc538)" d="M 766.041689 61.8555 
C 769.673778 61.8555 773.157595 60.412456 775.72587 57.844181 
C 778.294145 55.275906 779.737189 51.792089 779.737189 48.16 
C 779.737189 44.527911 778.294145 41.044094 775.72587 38.475819 
C 773.157595 35.907544 769.673778 34.4645 766.041689 34.4645 
C 762.4096 34.4645 758.925783 35.907544 756.357508 38.475819 
C 753.789233 41.044094 752.346189 44.527911 752.346189 48.16 
C 752.346189 51.792089 753.789233 55.275906 756.357508 57.844181 
C 758.925783 60.412456 762.4096 61.8555 766.041689 61.8555 
z
" style="fill:#6fa4ff;stroke:#6fa4ff;stroke-linejoin:miter;stroke-width:2;"/>
   </g>
   <g id="line2d_19">
    <path clip-path="url(#p92626dc538)" d="M 224.241689 537.586 
L 224.241689 521.934 
" style="fill:none;stroke:#ffffff;stroke-linecap:square;stroke-width:2;"/>
   </g>
   <g id="line2d_20">
    <path clip-path="url(#p92626dc538)" d="M 216.415689 529.76 
L 232.067689 529.76 
" style="fill:none;stroke:#ffffff;stroke-linecap:square;stroke-width:2;"/>
   </g>
   <g id="line2d_21">
    <path clip-path="url(#p92626dc538)" d="M 284.441689 18.06 
L 284.441689 78.26 
" style="fill:none;stroke:#000000;stroke-dasharray:3.7,1.6;stroke-dashoffset:0;"/>
   </g>
   <g id="line2d_22">
    <path clip-path="url(#p92626dc538)" d="M 284.441689 78.26 
L 284.441689 138.46 
" style="fill:none;stroke:#000000;stroke-dasharray:3.7,1.6;stroke-dashoffset:0;"/>
   </g>
   <g id="line2d_23">
    <path clip-path="url(#p92626dc538)" d="M 284.441689 138.46 
L 284.441689 198.66 
" style="fill:none;stroke:#000000;stroke-dasharray:3.7,1.6;stroke-dashoffset:0;"/>
   </g>
   <g id="line2d_24">
    <path clip-path="url(#p92626dc538)" d="M 284.441689 198.66 
L 284.441689 258.86 
" style="fill:none;stroke:#000000;stroke-dasharray:3.7,1.6;stroke-dashoffset:0;"/>
   </g>
   <g id="line2d_25">
    <path clip-path="url(#p92626dc538)" d="M 284.441689 258.86 
L 284.441689 319.06 
" style="fill:none;stroke:#000000;stroke-dasharray:3.7,1.6;stroke-dashoffset:0;"/>
   </g>
   <g id="line2d_26">
    <path clip-path="url(#p92626dc538)" d="M 284.441689 319.06 
L 284.441689 379.26 
" style="fill:none;stroke:#000000;stroke-dasharray:3.7,1.6;stroke-dashoffset:0;"/>
   </g>
   <g id="line2d_27">
    <path clip-path="url(#p92626dc538)" d="M 284.441689 379.26 
L 284.441689 439.46 
" style="fill:none;stroke:#000000;stroke-dasharray:3.7,1.6;stroke-dashoffset:0;"/>
   </g>
   <g id="line2d_28">
    <path clip-path="url(#p92626dc538)" d="M 284.441689 439.46 
L 284.441689 499.66 
" style="fill:none;stroke:#000000;stroke-dasharray:3.7,1.6;stroke-dashoffset:0;"/>
   </g>
   <g id="line2d_29">
    <path clip-path="url(#p92626dc538)" d="M 284.441689 499.66 
L 284.441689 559.86 
" style="fill:none;stroke:#000000;stroke-dasharray:3.7,1.6;stroke-dashoffset:0;"/>
   </g>
   <g id="line2d_30">
    <path clip-path="url(#p92626dc538)" d="M 344.641689 477.386 
L 344.641689 461.734 
" style="fill:none;stroke:#ffffff;stroke-linecap:square;stroke-width:2;"/>
   </g>
   <g id="line2d_31">
    <path clip-path="url(#p92626dc538)" d="M 336.815689 469.56 
L 352.467689 469.56 
" style="fill:none;stroke:#ffffff;stroke-linecap:square;stroke-width:2;"/>
   </g>
   <g id="line2d_32">
    <path clip-path="url(#p92626dc538)" d="M 404.841689 417.186 
L 404.841689 401.534 
" style="fill:none;stroke:#ffffff;stroke-linecap:square;stroke-width:2;"/>
   </g>
   <g id="line2d_33">
    <path clip-path="url(#p92626dc538)" d="M 397.015689 409.36 
L 412.667689 409.36 
" style="fill:none;stroke:#ffffff;stroke-linecap:square;stroke-width:2;"/>
   </g>
   <g id="line2d_34">
    <path clip-path="url(#p92626dc538)" d="M 465.041689 356.986 
L 465.041689 341.334 
" style="fill:none;stroke:#ffffff;stroke-linecap:square;stroke-width:2;"/>
   </g>
   <g id="line2d_35">
    <path clip-path="url(#p92626dc538)" d="M 457.215689 349.16 
L 472.867689 349.16 
" style="fill:none;stroke:#ffffff;stroke-linecap:square;stroke-width:2;"/>
   </g>
   <g id="line2d_36">
    <path clip-path="url(#p92626dc538)" d="M 525.241689 296.786 
L 525.241689 281.134 
" style="fill:none;stroke:#ffffff;stroke-linecap:square;stroke-width:2;"/>
   </g>
   <g id="line2d_37">
    <path clip-path="url(#p92626dc538)" d="M 517.415689 288.96 
L 533.067689 288.96 
" style="fill:none;stroke:#ffffff;stroke-linecap:square;stroke-width:2;"/>
   </g>
   <g id="line2d_38">
    <path clip-path="url(#p92626dc538)" d="M 585.441689 236.586 
L 585.441689 220.934 
" style="fill:none;stroke:#ffffff;stroke-linecap:square;stroke-width:2;"/>
   </g>
   <g id="line2d_39">
    <path clip-path="url(#p92626dc538)" d="M 577.615689 228.76 
L 593.267689 228.76 
" style="fill:none;stroke:#ffffff;stroke-linecap:square;stroke-width:2;"/>
   </g>
   <g id="line2d_40">
    <path clip-path="url(#p92626dc538)" d="M 645.641689 176.386 
L 645.641689 160.734 
" style="fill:none;stroke:#ffffff;stroke-linecap:square;stroke-width:2;"/>
   </g>
   <g id="line2d_41">
    <path clip-path="url(#p92626dc538)" d="M 637.815689 168.56 
L 653.467689 168.56 
" style="fill:none;stroke:#ffffff;stroke-linecap:square;stroke-width:2;"/>
   </g>
   <g id="line2d_42">
    <path clip-path="url(#p92626dc538)" d="M 705.841689 116.186 
L 705.841689 100.534 
" style="fill:none;stroke:#ffffff;stroke-linecap:square;stroke-width:2;"/>
   </g>
   <g id="line2d_43">
    <path clip-path="url(#p92626dc538)" d="M 698.015689 108.36 
L 713.667689 108.36 
" style="fill:none;stroke:#ffffff;stroke-linecap:square;stroke-width:2;"/>
   </g>
   <g id="line2d_44">
    <path clip-path="url(#p92626dc538)" d="M 766.041689 55.986 
L 766.041689 40.334 
" style="fill:none;stroke:#ffffff;stroke-linecap:square;stroke-width:2;"/>
   </g>
   <g id="line2d_45">
    <path clip-path="url(#p92626dc538)" d="M 758.215689 48.16 
L 773.867689 48.16 
" style="fill:none;stroke:#ffffff;stroke-linecap:square;stroke-width:2;"/>
   </g>
   <g id="text_1">
    <g clip-path="url(#p92626dc538)">
     <!-- X -->
     <defs>
      <path d="M 6.296875 72.90625 
L 16.890625 72.90625 
L 35.015625 45.796875 
L 53.21875 72.90625 
L 63.8125 72.90625 
L 40.375 37.890625 
L 65.375 0 
L 54.78125 0 
L 34.28125 31 
L 13.625 0 
L 2.984375 0 
L 29 38.921875 
z
" id="DejaVuSans-88"/>
     </defs>
     <g transform="translate(159.589189 533.347187)scale(0.13 -0.13)">
      <use xlink:href="#DejaVuSans-88"/>
     </g>
    </g>
   </g>
   <g id="text_2">
    <g clip-path="url(#p92626dc538)">
     <!-- ${p[0]}_{0}$ -->
     <defs>
      <path d="M 49.609375 33.6875 
Q 49.609375 40.875 46.484375 44.671875 
Q 43.359375 48.484375 37.5 48.484375 
Q 33.5 48.484375 29.859375 46.4375 
Q 26.21875 44.390625 23.390625 40.484375 
Q 20.609375 36.625 18.9375 31.15625 
Q 17.28125 25.6875 17.28125 20.3125 
Q 17.28125 13.484375 20.40625 9.796875 
Q 23.53125 6.109375 29.296875 6.109375 
Q 33.546875 6.109375 37.1875 8.109375 
Q 40.828125 10.109375 43.40625 13.921875 
Q 46.1875 17.921875 47.890625 23.34375 
Q 49.609375 28.765625 49.609375 33.6875 
z
M 21.78125 46.390625 
Q 25.390625 51.125 30.296875 53.5625 
Q 35.203125 56 41.21875 56 
Q 49.609375 56 54.25 50.5 
Q 58.890625 45.015625 58.890625 35.109375 
Q 58.890625 27 56 19.65625 
Q 53.125 12.3125 47.703125 6.5 
Q 44.09375 2.640625 39.546875 0.609375 
Q 35.015625 -1.421875 29.984375 -1.421875 
Q 24.171875 -1.421875 20.21875 1 
Q 16.265625 3.421875 14.3125 8.203125 
L 8.6875 -20.796875 
L -0.296875 -20.796875 
L 14.40625 54.6875 
L 23.390625 54.6875 
z
" id="DejaVuSans-Oblique-112"/>
      <path d="M 8.59375 75.984375 
L 29.296875 75.984375 
L 29.296875 69 
L 17.578125 69 
L 17.578125 -6.203125 
L 29.296875 -6.203125 
L 29.296875 -13.1875 
L 8.59375 -13.1875 
z
" id="DejaVuSans-91"/>
      <path d="M 31.78125 66.40625 
Q 24.171875 66.40625 20.328125 58.90625 
Q 16.5 51.421875 16.5 36.375 
Q 16.5 21.390625 20.328125 13.890625 
Q 24.171875 6.390625 31.78125 6.390625 
Q 39.453125 6.390625 43.28125 13.890625 
Q 47.125 21.390625 47.125 36.375 
Q 47.125 51.421875 43.28125 58.90625 
Q 39.453125 66.40625 31.78125 66.40625 
z
M 31.78125 74.21875 
Q 44.046875 74.21875 50.515625 64.515625 
Q 56.984375 54.828125 56.984375 36.375 
Q 56.984375 17.96875 50.515625 8.265625 
Q 44.046875 -1.421875 31.78125 -1.421875 
Q 19.53125 -1.421875 13.0625 8.265625 
Q 6.59375 17.96875 6.59375 36.375 
Q 6.59375 54.828125 13.0625 64.515625 
Q 19.53125 74.21875 31.78125 74.21875 
z
" id="DejaVuSans-48"/>
      <path d="M 30.421875 75.984375 
L 30.421875 -13.1875 
L 9.71875 -13.1875 
L 9.71875 -6.203125 
L 21.390625 -6.203125 
L 21.390625 69 
L 9.71875 69 
L 9.71875 75.984375 
z
" id="DejaVuSans-93"/>
     </defs>
     <g transform="translate(50.526689 52.62875)scale(0.1625 -0.1625)">
      <use transform="translate(0 0.015625)" xlink:href="#DejaVuSans-Oblique-112"/>
      <use transform="translate(63.476562 0.015625)" xlink:href="#DejaVuSans-91"/>
      <use transform="translate(102.490234 0.015625)" xlink:href="#DejaVuSans-48"/>
      <use transform="translate(166.113281 0.015625)" xlink:href="#DejaVuSans-93"/>
      <use transform="translate(206.083984 -16.390625)scale(0.7)" xlink:href="#DejaVuSans-48"/>
     </g>
    </g>
   </g>
   <g id="text_3">
    <g clip-path="url(#p92626dc538)">
     <!-- ${p[0]}_{1}$ -->
     <defs>
      <path d="M 12.40625 8.296875 
L 28.515625 8.296875 
L 28.515625 63.921875 
L 10.984375 60.40625 
L 10.984375 69.390625 
L 28.421875 72.90625 
L 38.28125 72.90625 
L 38.28125 8.296875 
L 54.390625 8.296875 
L 54.390625 0 
L 12.40625 0 
z
" id="DejaVuSans-49"/>
     </defs>
     <g transform="translate(50.526689 112.82875)scale(0.1625 -0.1625)">
      <use transform="translate(0 0.015625)" xlink:href="#DejaVuSans-Oblique-112"/>
      <use transform="translate(63.476562 0.015625)" xlink:href="#DejaVuSans-91"/>
      <use transform="translate(102.490234 0.015625)" xlink:href="#DejaVuSans-48"/>
      <use transform="translate(166.113281 0.015625)" xlink:href="#DejaVuSans-93"/>
      <use transform="translate(206.083984 -16.390625)scale(0.7)" xlink:href="#DejaVuSans-49"/>
     </g>
    </g>
   </g>
   <g id="text_4">
    <g clip-path="url(#p92626dc538)">
     <!-- ${p[0]}_{2}$ -->
     <defs>
      <path d="M 19.1875 8.296875 
L 53.609375 8.296875 
L 53.609375 0 
L 7.328125 0 
L 7.328125 8.296875 
Q 12.9375 14.109375 22.625 23.890625 
Q 32.328125 33.6875 34.8125 36.53125 
Q 39.546875 41.84375 41.421875 45.53125 
Q 43.3125 49.21875 43.3125 52.78125 
Q 43.3125 58.59375 39.234375 62.25 
Q 35.15625 65.921875 28.609375 65.921875 
Q 23.96875 65.921875 18.8125 64.3125 
Q 13.671875 62.703125 7.8125 59.421875 
L 7.8125 69.390625 
Q 13.765625 71.78125 18.9375 73 
Q 24.125 74.21875 28.421875 74.21875 
Q 39.75 74.21875 46.484375 68.546875 
Q 53.21875 62.890625 53.21875 53.421875 
Q 53.21875 48.921875 51.53125 44.890625 
Q 49.859375 40.875 45.40625 35.40625 
Q 44.1875 33.984375 37.640625 27.21875 
Q 31.109375 20.453125 19.1875 8.296875 
z
" id="DejaVuSans-50"/>
     </defs>
     <g transform="translate(50.526689 173.02875)scale(0.1625 -0.1625)">
      <use transform="translate(0 0.015625)" xlink:href="#DejaVuSans-Oblique-112"/>
      <use transform="translate(63.476562 0.015625)" xlink:href="#DejaVuSans-91"/>
      <use transform="translate(102.490234 0.015625)" xlink:href="#DejaVuSans-48"/>
      <use transform="translate(166.113281 0.015625)" xlink:href="#DejaVuSans-93"/>
      <use transform="translate(206.083984 -16.390625)scale(0.7)" xlink:href="#DejaVuSans-50"/>
     </g>
    </g>
   </g>
   <g id="text_5">
    <g clip-path="url(#p92626dc538)">
     <!-- ${p[0]}_{3}$ -->
     <defs>
      <path d="M 40.578125 39.3125 
Q 47.65625 37.796875 51.625 33 
Q 55.609375 28.21875 55.609375 21.1875 
Q 55.609375 10.40625 48.1875 4.484375 
Q 40.765625 -1.421875 27.09375 -1.421875 
Q 22.515625 -1.421875 17.65625 -0.515625 
Q 12.796875 0.390625 7.625 2.203125 
L 7.625 11.71875 
Q 11.71875 9.328125 16.59375 8.109375 
Q 21.484375 6.890625 26.8125 6.890625 
Q 36.078125 6.890625 40.9375 10.546875 
Q 45.796875 14.203125 45.796875 21.1875 
Q 45.796875 27.640625 41.28125 31.265625 
Q 36.765625 34.90625 28.71875 34.90625 
L 20.21875 34.90625 
L 20.21875 43.015625 
L 29.109375 43.015625 
Q 36.375 43.015625 40.234375 45.921875 
Q 44.09375 48.828125 44.09375 54.296875 
Q 44.09375 59.90625 40.109375 62.90625 
Q 36.140625 65.921875 28.71875 65.921875 
Q 24.65625 65.921875 20.015625 65.03125 
Q 15.375 64.15625 9.8125 62.3125 
L 9.8125 71.09375 
Q 15.4375 72.65625 20.34375 73.4375 
Q 25.25 74.21875 29.59375 74.21875 
Q 40.828125 74.21875 47.359375 69.109375 
Q 53.90625 64.015625 53.90625 55.328125 
Q 53.90625 49.265625 50.4375 45.09375 
Q 46.96875 40.921875 40.578125 39.3125 
z
" id="DejaVuSans-51"/>
     </defs>
     <g transform="translate(50.526689 233.22875)scale(0.1625 -0.1625)">
      <use transform="translate(0 0.015625)" xlink:href="#DejaVuSans-Oblique-112"/>
      <use transform="translate(63.476562 0.015625)" xlink:href="#DejaVuSans-91"/>
      <use transform="translate(102.490234 0.015625)" xlink:href="#DejaVuSans-48"/>
      <use transform="translate(166.113281 0.015625)" xlink:href="#DejaVuSans-93"/>
      <use transform="translate(206.083984 -16.390625)scale(0.7)" xlink:href="#DejaVuSans-51"/>
     </g>
    </g>
   </g>
   <g id="text_6">
    <g clip-path="url(#p92626dc538)">
     <!-- ${p[0]}_{4}$ -->
     <defs>
      <path d="M 37.796875 64.3125 
L 12.890625 25.390625 
L 37.796875 25.390625 
z
M 35.203125 72.90625 
L 47.609375 72.90625 
L 47.609375 25.390625 
L 58.015625 25.390625 
L 58.015625 17.1875 
L 47.609375 17.1875 
L 47.609375 0 
L 37.796875 0 
L 37.796875 17.1875 
L 4.890625 17.1875 
L 4.890625 26.703125 
z
" id="DejaVuSans-52"/>
     </defs>
     <g transform="translate(50.526689 293.42875)scale(0.1625 -0.1625)">
      <use transform="translate(0 0.015625)" xlink:href="#DejaVuSans-Oblique-112"/>
      <use transform="translate(63.476562 0.015625)" xlink:href="#DejaVuSans-91"/>
      <use transform="translate(102.490234 0.015625)" xlink:href="#DejaVuSans-48"/>
      <use transform="translate(166.113281 0.015625)" xlink:href="#DejaVuSans-93"/>
      <use transform="translate(206.083984 -16.390625)scale(0.7)" xlink:href="#DejaVuSans-52"/>
     </g>
    </g>
   </g>
   <g id="text_7">
    <g clip-path="url(#p92626dc538)">
     <!-- ${p[0]}_{5}$ -->
     <defs>
      <path d="M 10.796875 72.90625 
L 49.515625 72.90625 
L 49.515625 64.59375 
L 19.828125 64.59375 
L 19.828125 46.734375 
Q 21.96875 47.46875 24.109375 47.828125 
Q 26.265625 48.1875 28.421875 48.1875 
Q 40.625 48.1875 47.75 41.5 
Q 54.890625 34.8125 54.890625 23.390625 
Q 54.890625 11.625 47.5625 5.09375 
Q 40.234375 -1.421875 26.90625 -1.421875 
Q 22.3125 -1.421875 17.546875 -0.640625 
Q 12.796875 0.140625 7.71875 1.703125 
L 7.71875 11.625 
Q 12.109375 9.234375 16.796875 8.0625 
Q 21.484375 6.890625 26.703125 6.890625 
Q 35.15625 6.890625 40.078125 11.328125 
Q 45.015625 15.765625 45.015625 23.390625 
Q 45.015625 31 40.078125 35.4375 
Q 35.15625 39.890625 26.703125 39.890625 
Q 22.75 39.890625 18.8125 39.015625 
Q 14.890625 38.140625 10.796875 36.28125 
z
" id="DejaVuSans-53"/>
     </defs>
     <g transform="translate(50.526689 353.62875)scale(0.1625 -0.1625)">
      <use transform="translate(0 0.015625)" xlink:href="#DejaVuSans-Oblique-112"/>
      <use transform="translate(63.476562 0.015625)" xlink:href="#DejaVuSans-91"/>
      <use transform="translate(102.490234 0.015625)" xlink:href="#DejaVuSans-48"/>
      <use transform="translate(166.113281 0.015625)" xlink:href="#DejaVuSans-93"/>
      <use transform="translate(206.083984 -16.390625)scale(0.7)" xlink:href="#DejaVuSans-53"/>
     </g>
    </g>
   </g>
   <g id="text_8">
    <g clip-path="url(#p92626dc538)">
     <!-- ${p[0]}_{6}$ -->
     <defs>
      <path d="M 33.015625 40.375 
Q 26.375 40.375 22.484375 35.828125 
Q 18.609375 31.296875 18.609375 23.390625 
Q 18.609375 15.53125 22.484375 10.953125 
Q 26.375 6.390625 33.015625 6.390625 
Q 39.65625 6.390625 43.53125 10.953125 
Q 47.40625 15.53125 47.40625 23.390625 
Q 47.40625 31.296875 43.53125 35.828125 
Q 39.65625 40.375 33.015625 40.375 
z
M 52.59375 71.296875 
L 52.59375 62.3125 
Q 48.875 64.0625 45.09375 64.984375 
Q 41.3125 65.921875 37.59375 65.921875 
Q 27.828125 65.921875 22.671875 59.328125 
Q 17.53125 52.734375 16.796875 39.40625 
Q 19.671875 43.65625 24.015625 45.921875 
Q 28.375 48.1875 33.59375 48.1875 
Q 44.578125 48.1875 50.953125 41.515625 
Q 57.328125 34.859375 57.328125 23.390625 
Q 57.328125 12.15625 50.6875 5.359375 
Q 44.046875 -1.421875 33.015625 -1.421875 
Q 20.359375 -1.421875 13.671875 8.265625 
Q 6.984375 17.96875 6.984375 36.375 
Q 6.984375 53.65625 15.1875 63.9375 
Q 23.390625 74.21875 37.203125 74.21875 
Q 40.921875 74.21875 44.703125 73.484375 
Q 48.484375 72.75 52.59375 71.296875 
z
" id="DejaVuSans-54"/>
     </defs>
     <g transform="translate(50.526689 413.82875)scale(0.1625 -0.1625)">
      <use transform="translate(0 0.015625)" xlink:href="#DejaVuSans-Oblique-112"/>
      <use transform="translate(63.476562 0.015625)" xlink:href="#DejaVuSans-91"/>
      <use transform="translate(102.490234 0.015625)" xlink:href="#DejaVuSans-48"/>
      <use transform="translate(166.113281 0.015625)" xlink:href="#DejaVuSans-93"/>
      <use transform="translate(206.083984 -16.390625)scale(0.7)" xlink:href="#DejaVuSans-54"/>
     </g>
    </g>
   </g>
   <g id="text_9">
    <g clip-path="url(#p92626dc538)">
     <!-- ${p[0]}_{7}$ -->
     <defs>
      <path d="M 8.203125 72.90625 
L 55.078125 72.90625 
L 55.078125 68.703125 
L 28.609375 0 
L 18.3125 0 
L 43.21875 64.59375 
L 8.203125 64.59375 
z
" id="DejaVuSans-55"/>
     </defs>
     <g transform="translate(50.526689 474.02875)scale(0.1625 -0.1625)">
      <use transform="translate(0 0.015625)" xlink:href="#DejaVuSans-Oblique-112"/>
      <use transform="translate(63.476562 0.015625)" xlink:href="#DejaVuSans-91"/>
      <use transform="translate(102.490234 0.015625)" xlink:href="#DejaVuSans-48"/>
      <use transform="translate(166.113281 0.015625)" xlink:href="#DejaVuSans-93"/>
      <use transform="translate(206.083984 -16.390625)scale(0.7)" xlink:href="#DejaVuSans-55"/>
     </g>
    </g>
   </g>
   <g id="text_10">
    <g clip-path="url(#p92626dc538)">
     <!-- ${if}_{0}$ -->
     <defs>
      <path d="M 18.3125 75.984375 
L 27.296875 75.984375 
L 25.09375 64.59375 
L 16.109375 64.59375 
z
M 14.203125 54.6875 
L 23.1875 54.6875 
L 12.5 0 
L 3.515625 0 
z
" id="DejaVuSans-Oblique-105"/>
      <path d="M 47.796875 75.984375 
L 46.390625 68.5 
L 37.796875 68.5 
Q 32.90625 68.5 30.6875 66.578125 
Q 28.46875 64.65625 27.390625 59.515625 
L 26.421875 54.6875 
L 41.21875 54.6875 
L 39.890625 47.703125 
L 25.09375 47.703125 
L 15.828125 0 
L 6.78125 0 
L 16.109375 47.703125 
L 7.515625 47.703125 
L 8.796875 54.6875 
L 17.390625 54.6875 
L 18.109375 58.5 
Q 19.96875 68.171875 24.625 72.078125 
Q 29.296875 75.984375 39.3125 75.984375 
z
" id="DejaVuSans-Oblique-102"/>
     </defs>
     <g transform="translate(73.764189 534.243984)scale(0.1625 -0.1625)">
      <use transform="translate(0 0.015625)" xlink:href="#DejaVuSans-Oblique-105"/>
      <use transform="translate(27.783203 0.015625)" xlink:href="#DejaVuSans-Oblique-102"/>
      <use transform="translate(62.988281 -16.390625)scale(0.7)" xlink:href="#DejaVuSans-48"/>
     </g>
    </g>
   </g>
  </g>
 </g>
 <defs>
  <clipPath id="p92626dc538">
   <rect height="565.88" width="832.261689" x="0" y="0"/>
  </clipPath>
 </defs>
</svg>
