<?xml version="1.0" encoding="utf-8" standalone="no"?>
<!DOCTYPE svg PUBLIC "-//W3C//DTD SVG 1.1//EN"
  "http://www.w3.org/Graphics/SVG/1.1/DTD/svg11.dtd">
<!-- Created with matplotlib (https://matplotlib.org/) -->
<svg height="626.08pt" version="1.1" viewBox="0 0 410.861689 626.08" width="410.861689pt" xmlns="http://www.w3.org/2000/svg" xmlns:xlink="http://www.w3.org/1999/xlink">
 <defs>
  <style type="text/css">
*{stroke-linecap:butt;stroke-linejoin:round;}
  </style>
 </defs>
 <g id="figure_1">
  <g id="patch_1">
   <path d="M 0 626.08 
L 410.861689 626.08 
L 410.861689 0 
L 0 0 
z
" style="fill:#ffffff;"/>
  </g>
  <g id="axes_1">
   <g id="line2d_1">
    <path clip-path="url(#p819ae946d3)" d="M 115.881689 48.16 
L 404.841689 48.16 
" style="fill:none;stroke:#000000;stroke-linecap:square;stroke-width:2;"/>
   </g>
   <g id="line2d_2">
    <path clip-path="url(#p819ae946d3)" d="M 115.881689 108.36 
L 404.841689 108.36 
" style="fill:none;stroke:#000000;stroke-linecap:square;stroke-width:2;"/>
   </g>
   <g id="line2d_3">
    <path clip-path="url(#p819ae946d3)" d="M 115.881689 168.56 
L 404.841689 168.56 
" style="fill:none;stroke:#000000;stroke-linecap:square;stroke-width:2;"/>
   </g>
   <g id="line2d_4">
    <path clip-path="url(#p819ae946d3)" d="M 115.881689 228.76 
L 404.841689 228.76 
" style="fill:none;stroke:#000000;stroke-linecap:square;stroke-width:2;"/>
   </g>
   <g id="line2d_5">
    <path clip-path="url(#p819ae946d3)" d="M 115.881689 288.96 
L 404.841689 288.96 
" style="fill:none;stroke:#000000;stroke-linecap:square;stroke-width:2;"/>
   </g>
   <g id="line2d_6">
    <path clip-path="url(#p819ae946d3)" d="M 115.881689 349.16 
L 404.841689 349.16 
" style="fill:none;stroke:#000000;stroke-linecap:square;stroke-width:2;"/>
   </g>
   <g id="line2d_7">
    <path clip-path="url(#p819ae946d3)" d="M 115.881689 409.36 
L 404.841689 409.36 
" style="fill:none;stroke:#000000;stroke-linecap:square;stroke-width:2;"/>
   </g>
   <g id="line2d_8">
    <path clip-path="url(#p819ae946d3)" d="M 115.881689 469.56 
L 404.841689 469.56 
" style="fill:none;stroke:#000000;stroke-linecap:square;stroke-width:2;"/>
   </g>
   <g id="line2d_9">
    <path clip-path="url(#p819ae946d3)" d="M 115.881689 529.76 
L 404.841689 529.76 
" style="fill:none;stroke:#000000;stroke-linecap:square;stroke-width:2;"/>
   </g>
   <g id="line2d_10">
    <path clip-path="url(#p819ae946d3)" d="M 115.881689 589.96 
L 404.841689 589.96 
" style="fill:none;stroke:#000000;stroke-linecap:square;stroke-width:2;"/>
   </g>
   <g id="line2d_11">
    <path clip-path="url(#p819ae946d3)" d="M 224.241689 589.96 
L 224.241689 469.56 
" style="fill:none;stroke:#bb8bff;stroke-linecap:square;stroke-width:2;"/>
   </g>
   <g id="line2d_12">
    <path clip-path="url(#p819ae946d3)" d="M 284.441689 589.96 
L 284.441689 349.16 
" style="fill:none;stroke:#bb8bff;stroke-linecap:square;stroke-width:2;"/>
   </g>
   <g id="line2d_13">
    <path clip-path="url(#p819ae946d3)" d="M 344.641689 589.96 
L 344.641689 529.76 
" style="fill:none;stroke:#6fa4ff;stroke-linecap:square;stroke-width:2;"/>
   </g>
   <g id="patch_2">
    <path clip-path="url(#p819ae946d3)" d="M 144.476689 609.525 
L 183.606689 609.525 
L 183.606689 570.395 
L 144.476689 570.395 
z
" style="stroke:#000000;stroke-linejoin:miter;stroke-width:1.5;"/>
   </g>
   <g id="patch_3">
    <path clip-path="url(#p819ae946d3)" d="M 224.241689 475.4295 
C 225.798299 475.4295 227.291363 474.811052 228.392052 473.710363 
C 229.492741 472.609674 230.111189 471.11661 230.111189 469.56 
C 230.111189 468.00339 229.492741 466.510326 228.392052 465.409637 
C 227.291363 464.308948 225.798299 463.6905 224.241689 463.6905 
C 222.685079 463.6905 221.192015 464.308948 220.091326 465.409637 
C 218.990637 466.510326 218.372189 468.00339 218.372189 469.56 
C 218.372189 471.11661 218.990637 472.609674 220.091326 473.710363 
C 221.192015 474.811052 222.685079 475.4295 224.241689 475.4295 
z
" style="fill:#bb8bff;stroke:#bb8bff;stroke-linejoin:miter;stroke-width:1.5;"/>
   </g>
   <g id="patch_4">
    <path clip-path="url(#p819ae946d3)" d="M 224.241689 535.6295 
C 225.798299 535.6295 227.291363 535.011052 228.392052 533.910363 
C 229.492741 532.809674 230.111189 531.31661 230.111189 529.76 
C 230.111189 528.20339 229.492741 526.710326 228.392052 525.609637 
C 227.291363 524.508948 225.798299 523.8905 224.241689 523.8905 
C 222.685079 523.8905 221.192015 524.508948 220.091326 525.609637 
C 218.990637 526.710326 218.372189 528.20339 218.372189 529.76 
C 218.372189 531.31661 218.990637 532.809674 220.091326 533.910363 
C 221.192015 535.011052 222.685079 535.6295 224.241689 535.6295 
z
" style="fill:#ffffff;stroke:#bb8bff;stroke-linejoin:miter;stroke-width:1.5;"/>
   </g>
   <g id="patch_5">
    <path clip-path="url(#p819ae946d3)" d="M 224.241689 603.6555 
C 227.873778 603.6555 231.357595 602.212456 233.92587 599.644181 
C 236.494145 597.075906 237.937189 593.592089 237.937189 589.96 
C 237.937189 586.327911 236.494145 582.844094 233.92587 580.275819 
C 231.357595 577.707544 227.873778 576.2645 224.241689 576.2645 
C 220.6096 576.2645 217.125783 577.707544 214.557508 580.275819 
C 211.989233 582.844094 210.546189 586.327911 210.546189 589.96 
C 210.546189 593.592089 211.989233 597.075906 214.557508 599.644181 
C 217.125783 602.212456 220.6096 603.6555 224.241689 603.6555 
z
" style="fill:#bb8bff;stroke:#bb8bff;stroke-linejoin:miter;stroke-width:2;"/>
   </g>
   <g id="patch_6">
    <path clip-path="url(#p819ae946d3)" d="M 284.441689 355.0295 
C 285.998299 355.0295 287.491363 354.411052 288.592052 353.310363 
C 289.692741 352.209674 290.311189 350.71661 290.311189 349.16 
C 290.311189 347.60339 289.692741 346.110326 288.592052 345.009637 
C 287.491363 343.908948 285.998299 343.2905 284.441689 343.2905 
C 282.885079 343.2905 281.392015 343.908948 280.291326 345.009637 
C 279.190637 346.110326 278.572189 347.60339 278.572189 349.16 
C 278.572189 350.71661 279.190637 352.209674 280.291326 353.310363 
C 281.392015 354.411052 282.885079 355.0295 284.441689 355.0295 
z
" style="fill:#ffffff;stroke:#bb8bff;stroke-linejoin:miter;stroke-width:1.5;"/>
   </g>
   <g id="patch_7">
    <path clip-path="url(#p819ae946d3)" d="M 284.441689 415.2295 
C 285.998299 415.2295 287.491363 414.611052 288.592052 413.510363 
C 289.692741 412.409674 290.311189 410.91661 290.311189 409.36 
C 290.311189 407.80339 289.692741 406.310326 288.592052 405.209637 
C 287.491363 404.108948 285.998299 403.4905 284.441689 403.4905 
C 282.885079 403.4905 281.392015 404.108948 280.291326 405.209637 
C 279.190637 406.310326 278.572189 407.80339 278.572189 409.36 
C 278.572189 410.91661 279.190637 412.409674 280.291326 413.510363 
C 281.392015 414.611052 282.885079 415.2295 284.441689 415.2295 
z
" style="fill:#ffffff;stroke:#bb8bff;stroke-linejoin:miter;stroke-width:1.5;"/>
   </g>
   <g id="patch_8">
    <path clip-path="url(#p819ae946d3)" d="M 284.441689 475.4295 
C 285.998299 475.4295 287.491363 474.811052 288.592052 473.710363 
C 289.692741 472.609674 290.311189 471.11661 290.311189 469.56 
C 290.311189 468.00339 289.692741 466.510326 288.592052 465.409637 
C 287.491363 464.308948 285.998299 463.6905 284.441689 463.6905 
C 282.885079 463.6905 281.392015 464.308948 280.291326 465.409637 
C 279.190637 466.510326 278.572189 468.00339 278.572189 469.56 
C 278.572189 471.11661 279.190637 472.609674 280.291326 473.710363 
C 281.392015 474.811052 282.885079 475.4295 284.441689 475.4295 
z
" style="fill:#ffffff;stroke:#bb8bff;stroke-linejoin:miter;stroke-width:1.5;"/>
   </g>
   <g id="patch_9">
    <path clip-path="url(#p819ae946d3)" d="M 284.441689 535.6295 
C 285.998299 535.6295 287.491363 535.011052 288.592052 533.910363 
C 289.692741 532.809674 290.311189 531.31661 290.311189 529.76 
C 290.311189 528.20339 289.692741 526.710326 288.592052 525.609637 
C 287.491363 524.508948 285.998299 523.8905 284.441689 523.8905 
C 282.885079 523.8905 281.392015 524.508948 280.291326 525.609637 
C 279.190637 526.710326 278.572189 528.20339 278.572189 529.76 
C 278.572189 531.31661 279.190637 532.809674 280.291326 533.910363 
C 281.392015 535.011052 282.885079 535.6295 284.441689 535.6295 
z
" style="fill:#ffffff;stroke:#bb8bff;stroke-linejoin:miter;stroke-width:1.5;"/>
   </g>
   <g id="patch_10">
    <path clip-path="url(#p819ae946d3)" d="M 284.441689 603.6555 
C 288.073778 603.6555 291.557595 602.212456 294.12587 599.644181 
C 296.694145 597.075906 298.137189 593.592089 298.137189 589.96 
C 298.137189 586.327911 296.694145 582.844094 294.12587 580.275819 
C 291.557595 577.707544 288.073778 576.2645 284.441689 576.2645 
C 280.8096 576.2645 277.325783 577.707544 274.757508 580.275819 
C 272.189233 582.844094 270.746189 586.327911 270.746189 589.96 
C 270.746189 593.592089 272.189233 597.075906 274.757508 599.644181 
C 277.325783 602.212456 280.8096 603.6555 284.441689 603.6555 
z
" style="fill:#bb8bff;stroke:#bb8bff;stroke-linejoin:miter;stroke-width:2;"/>
   </g>
   <g id="patch_11">
    <path clip-path="url(#p819ae946d3)" d="M 344.641689 595.8295 
C 346.198299 595.8295 347.691363 595.211052 348.792052 594.110363 
C 349.892741 593.009674 350.511189 591.51661 350.511189 589.96 
C 350.511189 588.40339 349.892741 586.910326 348.792052 585.809637 
C 347.691363 584.708948 346.198299 584.0905 344.641689 584.0905 
C 343.085079 584.0905 341.592015 584.708948 340.491326 585.809637 
C 339.390637 586.910326 338.772189 588.40339 338.772189 589.96 
C 338.772189 591.51661 339.390637 593.009674 340.491326 594.110363 
C 341.592015 595.211052 343.085079 595.8295 344.641689 595.8295 
z
" style="fill:#6fa4ff;stroke:#6fa4ff;stroke-linejoin:miter;stroke-width:1.5;"/>
   </g>
   <g id="patch_12">
    <path clip-path="url(#p819ae946d3)" d="M 344.641689 543.4555 
C 348.273778 543.4555 351.757595 542.012456 354.32587 539.444181 
C 356.894145 536.875906 358.337189 533.392089 358.337189 529.76 
C 358.337189 526.127911 356.894145 522.644094 354.32587 520.075819 
C 351.757595 517.507544 348.273778 516.0645 344.641689 516.0645 
C 341.0096 516.0645 337.525783 517.507544 334.957508 520.075819 
C 332.389233 522.644094 330.946189 526.127911 330.946189 529.76 
C 330.946189 533.392089 332.389233 536.875906 334.957508 539.444181 
C 337.525783 542.012456 341.0096 543.4555 344.641689 543.4555 
z
" style="fill:#6fa4ff;stroke:#6fa4ff;stroke-linejoin:miter;stroke-width:2;"/>
   </g>
   <g id="line2d_14">
    <path clip-path="url(#p819ae946d3)" d="M 224.241689 597.786 
L 224.241689 582.134 
" style="fill:none;stroke:#ffffff;stroke-linecap:square;stroke-width:2;"/>
   </g>
   <g id="line2d_15">
    <path clip-path="url(#p819ae946d3)" d="M 216.415689 589.96 
L 232.067689 589.96 
" style="fill:none;stroke:#ffffff;stroke-linecap:square;stroke-width:2;"/>
   </g>
   <g id="line2d_16">
    <path clip-path="url(#p819ae946d3)" d="M 284.441689 597.786 
L 284.441689 582.134 
" style="fill:none;stroke:#ffffff;stroke-linecap:square;stroke-width:2;"/>
   </g>
   <g id="line2d_17">
    <path clip-path="url(#p819ae946d3)" d="M 276.615689 589.96 
L 292.267689 589.96 
" style="fill:none;stroke:#ffffff;stroke-linecap:square;stroke-width:2;"/>
   </g>
   <g id="line2d_18">
    <path clip-path="url(#p819ae946d3)" d="M 344.641689 537.586 
L 344.641689 521.934 
" style="fill:none;stroke:#ffffff;stroke-linecap:square;stroke-width:2;"/>
   </g>
   <g id="line2d_19">
    <path clip-path="url(#p819ae946d3)" d="M 336.815689 529.76 
L 352.467689 529.76 
" style="fill:none;stroke:#ffffff;stroke-linecap:square;stroke-width:2;"/>
   </g>
   <g id="text_1">
    <g clip-path="url(#p819ae946d3)">
     <!-- $\left|0\right\rangle$ -->
     <defs>
      <path d="M 21 76.421875 
L 21 -23.578125 
L 12.703125 -23.578125 
L 12.703125 76.421875 
z
" id="DejaVuSans-124"/>
      <path d="M 31.78125 66.40625 
Q 24.171875 66.40625 20.328125 58.90625 
Q 16.5 51.421875 16.5 36.375 
Q 16.5 21.390625 20.328125 13.890625 
Q 24.171875 6.390625 31.78125 6.390625 
Q 39.453125 6.390625 43.28125 13.890625 
Q 47.125 21.390625 47.125 36.375 
Q 47.125 51.421875 43.28125 58.90625 
Q 39.453125 66.40625 31.78125 66.40625 
z
M 31.78125 74.21875 
Q 44.046875 74.21875 50.515625 64.515625 
Q 56.984375 54.828125 56.984375 36.375 
Q 56.984375 17.96875 50.515625 8.265625 
Q 44.046875 -1.421875 31.78125 -1.421875 
Q 19.53125 -1.421875 13.0625 8.265625 
Q 6.59375 17.96875 6.59375 36.375 
Q 6.59375 54.828125 13.0625 64.515625 
Q 19.53125 74.21875 31.78125 74.21875 
z
" id="DejaVuSans-48"/>
      <path d="M 30.078125 31.34375 
L 16.3125 -13.1875 
L 8.015625 -13.1875 
L 21.78125 31.34375 
L 8.015625 75.875 
L 16.3125 75.875 
z
" id="DejaVuSans-10217"/>
     </defs>
     <g style="fill:#ffffff;" transform="translate(155.136689 593.405)scale(0.13 -0.13)">
      <use transform="translate(0 0.578125)" xlink:href="#DejaVuSans-124"/>
      <use transform="translate(33.691406 0.578125)" xlink:href="#DejaVuSans-48"/>
      <use transform="translate(97.314453 0.578125)" xlink:href="#DejaVuSans-10217"/>
     </g>
    </g>
   </g>
   <g id="text_2">
    <g clip-path="url(#p819ae946d3)">
     <!-- ${p[0]}_{0}$ -->
     <defs>
      <path d="M 49.609375 33.6875 
Q 49.609375 40.875 46.484375 44.671875 
Q 43.359375 48.484375 37.5 48.484375 
Q 33.5 48.484375 29.859375 46.4375 
Q 26.21875 44.390625 23.390625 40.484375 
Q 20.609375 36.625 18.9375 31.15625 
Q 17.28125 25.6875 17.28125 20.3125 
Q 17.28125 13.484375 20.40625 9.796875 
Q 23.53125 6.109375 29.296875 6.109375 
Q 33.546875 6.109375 37.1875 8.109375 
Q 40.828125 10.109375 43.40625 13.921875 
Q 46.1875 17.921875 47.890625 23.34375 
Q 49.609375 28.765625 49.609375 33.6875 
z
M 21.78125 46.390625 
Q 25.390625 51.125 30.296875 53.5625 
Q 35.203125 56 41.21875 56 
Q 49.609375 56 54.25 50.5 
Q 58.890625 45.015625 58.890625 35.109375 
Q 58.890625 27 56 19.65625 
Q 53.125 12.3125 47.703125 6.5 
Q 44.09375 2.640625 39.546875 0.609375 
Q 35.015625 -1.421875 29.984375 -1.421875 
Q 24.171875 -1.421875 20.21875 1 
Q 16.265625 3.421875 14.3125 8.203125 
L 8.6875 -20.796875 
L -0.296875 -20.796875 
L 14.40625 54.6875 
L 23.390625 54.6875 
z
" id="DejaVuSans-Oblique-112"/>
      <path d="M 8.59375 75.984375 
L 29.296875 75.984375 
L 29.296875 69 
L 17.578125 69 
L 17.578125 -6.203125 
L 29.296875 -6.203125 
L 29.296875 -13.1875 
L 8.59375 -13.1875 
z
" id="DejaVuSans-91"/>
      <path d="M 30.421875 75.984375 
L 30.421875 -13.1875 
L 9.71875 -13.1875 
L 9.71875 -6.203125 
L 21.390625 -6.203125 
L 21.390625 69 
L 9.71875 69 
L 9.71875 75.984375 
z
" id="DejaVuSans-93"/>
     </defs>
     <g transform="translate(50.526689 52.62875)scale(0.1625 -0.1625)">
      <use transform="translate(0 0.015625)" xlink:href="#DejaVuSans-Oblique-112"/>
      <use transform="translate(63.476562 0.015625)" xlink:href="#DejaVuSans-91"/>
      <use transform="translate(102.490234 0.015625)" xlink:href="#DejaVuSans-48"/>
      <use transform="translate(166.113281 0.015625)" xlink:href="#DejaVuSans-93"/>
      <use transform="translate(206.083984 -16.390625)scale(0.7)" xlink:href="#DejaVuSans-48"/>
     </g>
    </g>
   </g>
   <g id="text_3">
    <g clip-path="url(#p819ae946d3)">
     <!-- ${p[0]}_{1}$ -->
     <defs>
      <path d="M 12.40625 8.296875 
L 28.515625 8.296875 
L 28.515625 63.921875 
L 10.984375 60.40625 
L 10.984375 69.390625 
L 28.421875 72.90625 
L 38.28125 72.90625 
L 38.28125 8.296875 
L 54.390625 8.296875 
L 54.390625 0 
L 12.40625 0 
z
" id="DejaVuSans-49"/>
     </defs>
     <g transform="translate(50.526689 112.82875)scale(0.1625 -0.1625)">
      <use transform="translate(0 0.015625)" xlink:href="#DejaVuSans-Oblique-112"/>
      <use transform="translate(63.476562 0.015625)" xlink:href="#DejaVuSans-91"/>
      <use transform="translate(102.490234 0.015625)" xlink:href="#DejaVuSans-48"/>
      <use transform="translate(166.113281 0.015625)" xlink:href="#DejaVuSans-93"/>
      <use transform="translate(206.083984 -16.390625)scale(0.7)" xlink:href="#DejaVuSans-49"/>
     </g>
    </g>
   </g>
   <g id="text_4">
    <g clip-path="url(#p819ae946d3)">
     <!-- ${p[0]}_{2}$ -->
     <defs>
      <path d="M 19.1875 8.296875 
L 53.609375 8.296875 
L 53.609375 0 
L 7.328125 0 
L 7.328125 8.296875 
Q 12.9375 14.109375 22.625 23.890625 
Q 32.328125 33.6875 34.8125 36.53125 
Q 39.546875 41.84375 41.421875 45.53125 
Q 43.3125 49.21875 43.3125 52.78125 
Q 43.3125 58.59375 39.234375 62.25 
Q 35.15625 65.921875 28.609375 65.921875 
Q 23.96875 65.921875 18.8125 64.3125 
Q 13.671875 62.703125 7.8125 59.421875 
L 7.8125 69.390625 
Q 13.765625 71.78125 18.9375 73 
Q 24.125 74.21875 28.421875 74.21875 
Q 39.75 74.21875 46.484375 68.546875 
Q 53.21875 62.890625 53.21875 53.421875 
Q 53.21875 48.921875 51.53125 44.890625 
Q 49.859375 40.875 45.40625 35.40625 
Q 44.1875 33.984375 37.640625 27.21875 
Q 31.109375 20.453125 19.1875 8.296875 
z
" id="DejaVuSans-50"/>
     </defs>
     <g transform="translate(50.526689 173.02875)scale(0.1625 -0.1625)">
      <use transform="translate(0 0.015625)" xlink:href="#DejaVuSans-Oblique-112"/>
      <use transform="translate(63.476562 0.015625)" xlink:href="#DejaVuSans-91"/>
      <use transform="translate(102.490234 0.015625)" xlink:href="#DejaVuSans-48"/>
      <use transform="translate(166.113281 0.015625)" xlink:href="#DejaVuSans-93"/>
      <use transform="translate(206.083984 -16.390625)scale(0.7)" xlink:href="#DejaVuSans-50"/>
     </g>
    </g>
   </g>
   <g id="text_5">
    <g clip-path="url(#p819ae946d3)">
     <!-- ${p[0]}_{3}$ -->
     <defs>
      <path d="M 40.578125 39.3125 
Q 47.65625 37.796875 51.625 33 
Q 55.609375 28.21875 55.609375 21.1875 
Q 55.609375 10.40625 48.1875 4.484375 
Q 40.765625 -1.421875 27.09375 -1.421875 
Q 22.515625 -1.421875 17.65625 -0.515625 
Q 12.796875 0.390625 7.625 2.203125 
L 7.625 11.71875 
Q 11.71875 9.328125 16.59375 8.109375 
Q 21.484375 6.890625 26.8125 6.890625 
Q 36.078125 6.890625 40.9375 10.546875 
Q 45.796875 14.203125 45.796875 21.1875 
Q 45.796875 27.640625 41.28125 31.265625 
Q 36.765625 34.90625 28.71875 34.90625 
L 20.21875 34.90625 
L 20.21875 43.015625 
L 29.109375 43.015625 
Q 36.375 43.015625 40.234375 45.921875 
Q 44.09375 48.828125 44.09375 54.296875 
Q 44.09375 59.90625 40.109375 62.90625 
Q 36.140625 65.921875 28.71875 65.921875 
Q 24.65625 65.921875 20.015625 65.03125 
Q 15.375 64.15625 9.8125 62.3125 
L 9.8125 71.09375 
Q 15.4375 72.65625 20.34375 73.4375 
Q 25.25 74.21875 29.59375 74.21875 
Q 40.828125 74.21875 47.359375 69.109375 
Q 53.90625 64.015625 53.90625 55.328125 
Q 53.90625 49.265625 50.4375 45.09375 
Q 46.96875 40.921875 40.578125 39.3125 
z
" id="DejaVuSans-51"/>
     </defs>
     <g transform="translate(50.526689 233.22875)scale(0.1625 -0.1625)">
      <use transform="translate(0 0.015625)" xlink:href="#DejaVuSans-Oblique-112"/>
      <use transform="translate(63.476562 0.015625)" xlink:href="#DejaVuSans-91"/>
      <use transform="translate(102.490234 0.015625)" xlink:href="#DejaVuSans-48"/>
      <use transform="translate(166.113281 0.015625)" xlink:href="#DejaVuSans-93"/>
      <use transform="translate(206.083984 -16.390625)scale(0.7)" xlink:href="#DejaVuSans-51"/>
     </g>
    </g>
   </g>
   <g id="text_6">
    <g clip-path="url(#p819ae946d3)">
     <!-- ${p[0]}_{4}$ -->
     <defs>
      <path d="M 37.796875 64.3125 
L 12.890625 25.390625 
L 37.796875 25.390625 
z
M 35.203125 72.90625 
L 47.609375 72.90625 
L 47.609375 25.390625 
L 58.015625 25.390625 
L 58.015625 17.1875 
L 47.609375 17.1875 
L 47.609375 0 
L 37.796875 0 
L 37.796875 17.1875 
L 4.890625 17.1875 
L 4.890625 26.703125 
z
" id="DejaVuSans-52"/>
     </defs>
     <g transform="translate(50.526689 293.42875)scale(0.1625 -0.1625)">
      <use transform="translate(0 0.015625)" xlink:href="#DejaVuSans-Oblique-112"/>
      <use transform="translate(63.476562 0.015625)" xlink:href="#DejaVuSans-91"/>
      <use transform="translate(102.490234 0.015625)" xlink:href="#DejaVuSans-48"/>
      <use transform="translate(166.113281 0.015625)" xlink:href="#DejaVuSans-93"/>
      <use transform="translate(206.083984 -16.390625)scale(0.7)" xlink:href="#DejaVuSans-52"/>
     </g>
    </g>
   </g>
   <g id="text_7">
    <g clip-path="url(#p819ae946d3)">
     <!-- ${p[0]}_{5}$ -->
     <defs>
      <path d="M 10.796875 72.90625 
L 49.515625 72.90625 
L 49.515625 64.59375 
L 19.828125 64.59375 
L 19.828125 46.734375 
Q 21.96875 47.46875 24.109375 47.828125 
Q 26.265625 48.1875 28.421875 48.1875 
Q 40.625 48.1875 47.75 41.5 
Q 54.890625 34.8125 54.890625 23.390625 
Q 54.890625 11.625 47.5625 5.09375 
Q 40.234375 -1.421875 26.90625 -1.421875 
Q 22.3125 -1.421875 17.546875 -0.640625 
Q 12.796875 0.140625 7.71875 1.703125 
L 7.71875 11.625 
Q 12.109375 9.234375 16.796875 8.0625 
Q 21.484375 6.890625 26.703125 6.890625 
Q 35.15625 6.890625 40.078125 11.328125 
Q 45.015625 15.765625 45.015625 23.390625 
Q 45.015625 31 40.078125 35.4375 
Q 35.15625 39.890625 26.703125 39.890625 
Q 22.75 39.890625 18.8125 39.015625 
Q 14.890625 38.140625 10.796875 36.28125 
z
" id="DejaVuSans-53"/>
     </defs>
     <g transform="translate(50.526689 353.62875)scale(0.1625 -0.1625)">
      <use transform="translate(0 0.015625)" xlink:href="#DejaVuSans-Oblique-112"/>
      <use transform="translate(63.476562 0.015625)" xlink:href="#DejaVuSans-91"/>
      <use transform="translate(102.490234 0.015625)" xlink:href="#DejaVuSans-48"/>
      <use transform="translate(166.113281 0.015625)" xlink:href="#DejaVuSans-93"/>
      <use transform="translate(206.083984 -16.390625)scale(0.7)" xlink:href="#DejaVuSans-53"/>
     </g>
    </g>
   </g>
   <g id="text_8">
    <g clip-path="url(#p819ae946d3)">
     <!-- ${p[0]}_{6}$ -->
     <defs>
      <path d="M 33.015625 40.375 
Q 26.375 40.375 22.484375 35.828125 
Q 18.609375 31.296875 18.609375 23.390625 
Q 18.609375 15.53125 22.484375 10.953125 
Q 26.375 6.390625 33.015625 6.390625 
Q 39.65625 6.390625 43.53125 10.953125 
Q 47.40625 15.53125 47.40625 23.390625 
Q 47.40625 31.296875 43.53125 35.828125 
Q 39.65625 40.375 33.015625 40.375 
z
M 52.59375 71.296875 
L 52.59375 62.3125 
Q 48.875 64.0625 45.09375 64.984375 
Q 41.3125 65.921875 37.59375 65.921875 
Q 27.828125 65.921875 22.671875 59.328125 
Q 17.53125 52.734375 16.796875 39.40625 
Q 19.671875 43.65625 24.015625 45.921875 
Q 28.375 48.1875 33.59375 48.1875 
Q 44.578125 48.1875 50.953125 41.515625 
Q 57.328125 34.859375 57.328125 23.390625 
Q 57.328125 12.15625 50.6875 5.359375 
Q 44.046875 -1.421875 33.015625 -1.421875 
Q 20.359375 -1.421875 13.671875 8.265625 
Q 6.984375 17.96875 6.984375 36.375 
Q 6.984375 53.65625 15.1875 63.9375 
Q 23.390625 74.21875 37.203125 74.21875 
Q 40.921875 74.21875 44.703125 73.484375 
Q 48.484375 72.75 52.59375 71.296875 
z
" id="DejaVuSans-54"/>
     </defs>
     <g transform="translate(50.526689 413.82875)scale(0.1625 -0.1625)">
      <use transform="translate(0 0.015625)" xlink:href="#DejaVuSans-Oblique-112"/>
      <use transform="translate(63.476562 0.015625)" xlink:href="#DejaVuSans-91"/>
      <use transform="translate(102.490234 0.015625)" xlink:href="#DejaVuSans-48"/>
      <use transform="translate(166.113281 0.015625)" xlink:href="#DejaVuSans-93"/>
      <use transform="translate(206.083984 -16.390625)scale(0.7)" xlink:href="#DejaVuSans-54"/>
     </g>
    </g>
   </g>
   <g id="text_9">
    <g clip-path="url(#p819ae946d3)">
     <!-- ${p[0]}_{7}$ -->
     <defs>
      <path d="M 8.203125 72.90625 
L 55.078125 72.90625 
L 55.078125 68.703125 
L 28.609375 0 
L 18.3125 0 
L 43.21875 64.59375 
L 8.203125 64.59375 
z
" id="DejaVuSans-55"/>
     </defs>
     <g transform="translate(50.526689 474.02875)scale(0.1625 -0.1625)">
      <use transform="translate(0 0.015625)" xlink:href="#DejaVuSans-Oblique-112"/>
      <use transform="translate(63.476562 0.015625)" xlink:href="#DejaVuSans-91"/>
      <use transform="translate(102.490234 0.015625)" xlink:href="#DejaVuSans-48"/>
      <use transform="translate(166.113281 0.015625)" xlink:href="#DejaVuSans-93"/>
      <use transform="translate(206.083984 -16.390625)scale(0.7)" xlink:href="#DejaVuSans-55"/>
     </g>
    </g>
   </g>
   <g id="text_10">
    <g clip-path="url(#p819ae946d3)">
     <!-- ${err}_{0}$ -->
     <defs>
      <path d="M 48.09375 32.234375 
Q 48.25 33.015625 48.3125 33.84375 
Q 48.390625 34.671875 48.390625 35.5 
Q 48.390625 41.453125 44.890625 44.921875 
Q 41.40625 48.390625 35.40625 48.390625 
Q 28.71875 48.390625 23.578125 44.15625 
Q 18.453125 39.9375 15.828125 32.171875 
z
M 55.90625 25.203125 
L 14.109375 25.203125 
Q 13.8125 23.34375 13.71875 22.265625 
Q 13.625 21.1875 13.625 20.40625 
Q 13.625 13.625 17.796875 9.90625 
Q 21.96875 6.203125 29.59375 6.203125 
Q 35.453125 6.203125 40.671875 7.515625 
Q 45.90625 8.84375 50.390625 11.375 
L 48.6875 2.484375 
Q 43.84375 0.53125 38.6875 -0.4375 
Q 33.546875 -1.421875 28.21875 -1.421875 
Q 16.84375 -1.421875 10.71875 4.015625 
Q 4.59375 9.46875 4.59375 19.484375 
Q 4.59375 28.03125 7.640625 35.375 
Q 10.6875 42.71875 16.609375 48.484375 
Q 20.40625 52.09375 25.65625 54.046875 
Q 30.90625 56 36.8125 56 
Q 46.09375 56 51.578125 50.4375 
Q 57.078125 44.875 57.078125 35.5 
Q 57.078125 33.25 56.78125 30.6875 
Q 56.5 28.125 55.90625 25.203125 
z
" id="DejaVuSans-Oblique-101"/>
      <path d="M 44.578125 46.390625 
Q 43.21875 47.125 41.453125 47.515625 
Q 39.703125 47.90625 37.703125 47.90625 
Q 30.515625 47.90625 25.140625 42.453125 
Q 19.78125 37.015625 18.015625 27.875 
L 12.5 0 
L 3.515625 0 
L 14.203125 54.6875 
L 23.1875 54.6875 
L 21.484375 46.1875 
Q 25.046875 50.921875 30 53.453125 
Q 34.96875 56 40.578125 56 
Q 42.046875 56 43.453125 55.828125 
Q 44.875 55.671875 46.296875 55.28125 
z
" id="DejaVuSans-Oblique-114"/>
     </defs>
     <g transform="translate(60.601689 534.243984)scale(0.1625 -0.1625)">
      <use xlink:href="#DejaVuSans-Oblique-101"/>
      <use transform="translate(61.523438 0)" xlink:href="#DejaVuSans-Oblique-114"/>
      <use transform="translate(102.636719 0)" xlink:href="#DejaVuSans-Oblique-114"/>
      <use transform="translate(143.75 -16.40625)scale(0.7)" xlink:href="#DejaVuSans-48"/>
     </g>
    </g>
   </g>
   <g id="text_11">
    <g clip-path="url(#p819ae946d3)">
     <!-- ${err}_{1}$ -->
     <g transform="translate(60.601689 594.443984)scale(0.1625 -0.1625)">
      <use xlink:href="#DejaVuSans-Oblique-101"/>
      <use transform="translate(61.523438 0)" xlink:href="#DejaVuSans-Oblique-114"/>
      <use transform="translate(102.636719 0)" xlink:href="#DejaVuSans-Oblique-114"/>
      <use transform="translate(143.75 -16.40625)scale(0.7)" xlink:href="#DejaVuSans-49"/>
     </g>
    </g>
   </g>
  </g>
 </g>
 <defs>
  <clipPath id="p819ae946d3">
   <rect height="626.08" width="410.861689" x="0" y="0"/>
  </clipPath>
 </defs>
</svg>
